<?xml version="1.0" encoding="utf-8"?>
<!-- Generator: Adobe Illustrator 27.3.1, SVG Export Plug-In . SVG Version: 6.00 Build 0)  -->
<svg version="1.1" id="Vrstva_1" xmlns="http://www.w3.org/2000/svg" xmlns:xlink="http://www.w3.org/1999/xlink" x="0px" y="0px"
	 viewBox="0 0 61.5 57.1" style="enable-background:new 0 0 61.5 57.1;" xml:space="preserve">
<style type="text/css">
	.st0{fill:#B392FF;}
	.st1{fill-rule:evenodd;clip-rule:evenodd;fill:#2B2722;}
</style>
<path class="st0" d="M50.1,17.6c0.5,0.1,1.4,0,2.1,0.3c1.2,0.4,1.6,1.6,0.8,2.6c-0.4,0.5-0.9,1-1.5,1.4c-1.7,1.2-1.9,2.4-0.3,3.6
	c1,0.8,2.2,1.4,3.2,2.2c0.7,0.5,1.7,1,2.1,1.7c0.8,1.7-0.4,3.3-2.3,3.6c-1.5,0.2-3,0.3-4.4,0.5c-1.7,0.3-2.3,1.6-1.3,2.9
	c1.4,1.8,3,3.3,4.5,5c0.5,0.5,1,1,1.5,1.4c0.8,0.6,0.9,1.5,0.4,2.2c-0.6,0.8-1.4,0.2-2.1-0.2c-1-0.8-2-1.7-3.1-2.5
	C49,41.7,48,41,47,40.6c-2.5-1.1-4.7-0.7-6.1,2c-0.8,1.4-1.1,1.5-2.6,0.9c-0.9-0.4-1.9-0.8-2.9-1C34,42,33,42.7,32.7,44
	c-0.5,2-0.3,3.9,0.4,5.8c0.3,0.8,0.7,1.6,0.8,2.5c0.1,0.7,0.1,1.5-0.1,2.2c-0.6,1.8-2.1,2.1-3.4,0.8c-1.3-1.3-1.4-3-1.7-4.7
	c-0.2-1.7-0.3-3.5-1-5c-2-4.5-8.2-4.8-11.3-0.7c-1.1,1.5-2.1,3.1-3.2,4.5c-0.5,0.7-1.1,1.3-1.8,1.8c-0.7,0.5-1.4,0.7-2.1,0
	c-0.7-0.6-0.7-1.3-0.3-2c0.4-0.7,0.9-1.3,1.4-2c1.2-1.4,2.5-2.7,3.5-4.1c0.4-0.6,0.7-1.9,0.3-2.3c-0.5-0.6-1.6-0.7-2.5-0.8
	c-0.5-0.1-1.1,0.4-1.6,0.4c-0.4,0.1-0.9,0-1.1-0.2c-0.2-0.2-0.2-0.8-0.1-1.1c0.2-0.6,0.7-1,1-1.6c0.2-0.5,0.4-1.3,0.2-1.7
	c-0.1-0.3-1-0.5-1.5-0.4c-1.9,0.1-3.8,0.4-5.6,0.5c-1,0.1-2.1,0-2.5-1.2c-0.3-1,0.4-2.5,1.6-2.9c1.7-0.6,3.6-0.9,5.3-1.3
	C8,30.1,8.7,30,9.4,29.7c2.7-0.9,3.7-3.6,2.3-6.1c-0.7-1.2-1.5-2.4-2.1-3.6c-0.2-0.5-0.4-1.4-0.1-1.7C9.8,18,10.6,18,11.2,18
	c1,0.1,1.9,0.5,2.9,0.6c1.4,0.2,2.4-0.5,3-1.7c0.7-1.2,0.5-2.4-0.3-3.5c-0.7-0.8-1.6-1.5-2.5-2.2c-1.1-0.8-2.2-1.6-3.2-2.5
	C9.9,7.9,9.7,6.7,9.9,5.3c0.3-1.6,1.8-2.3,2.9-1.2c1,1,1.7,2.3,2.4,3.5c0.9,1.6,1.4,3.4,2.4,4.9c0.6,0.9,1.8,1.5,2.8,2.1
	c1.2,0.6,2.4,0.3,3.3-0.8c0.9-1,0.7-2,0.2-3.1C23.5,10,23,9.4,22.6,8.6c-0.3-0.6-0.7-1.3-0.7-1.9c0-0.5,0.4-1.3,0.8-1.5
	c0.4-0.2,1.3,0,1.6,0.4c0.6,0.7,0.8,1.6,1.2,2.4c0.5,1.1,0.9,2.2,1.5,3.2c0.6,1,1.6,1.2,2.7,0.7c0.7-0.4,1.5-0.9,2.1-1.5
	c1.5-1.4,2.3-1.6,4.2-0.8c1.4,0.7,2.8,1.4,4.2,2c2.5,1.2,3.9,0.9,5.7-1.2c0.9-1.1,1.7-2.3,2.8-3.3c0.8-0.7,1.8-1.4,2.8-1.7
	c0.7-0.2,1.9,0.2,2.4,0.8c0.4,0.5,0.4,1.7,0.1,2.3c-0.4,0.9-1.3,1.6-2.1,2.1c-1.4,0.7-2.9,1.3-4.4,1.7c-1.3,0.3-2,1.2-2.5,2.2
	c-0.2,0.5,0,1.4,0.4,1.9C46.4,17.8,48.1,17.9,50.1,17.6z"/>
<path class="st0" d="M19.5,50.1c0.3-2.1,1.1-3.5,2.5-3.9c1.1-0.4,1.9,0,2.4,1.1c0.9,2.2,0.1,4.7-1.9,5.9c-0.7,0.5-1.4,0.3-1.8-0.3
	C20.1,52,19.9,51,19.5,50.1z"/>
<path class="st0" d="M30.6,8.2c-0.5,0.2-1,0-1.3-0.5c-0.6-1.1-1.1-2.2-1.6-3.3c-0.2-0.5-0.3-1.1-0.3-1.7c0-1,0.5-1.7,1.5-1.8
	c1-0.2,1.3,0.6,1.6,1.3c0.2,0.4,0.4,0.9,0.7,1.2C33.1,5,32.8,7.3,30.6,8.2C30.6,8.2,30.6,8.2,30.6,8.2z"/>
<path class="st0" d="M1.3,45.3c-0.8,0.2-1.5-0.7-0.9-1.4c1-1.2,2.8-2.1,4.1-1.8c0.2,0.1,0.6,0.7,0.6,0.8C4.7,43.8,2.9,44.9,1.3,45.3
	z"/>
<path class="st0" d="M2.8,22.7C3.9,22.5,5,22.6,6,23c0.8,0.3,0.7,1.6-0.2,1.7c-1,0.2-2.1,0.1-3.1-0.2C1.8,24.2,1.9,22.9,2.8,22.7z"
	/>
<path class="st0" d="M55,14.8c-0.4,0.3-1,0.3-1.4,0c-0.2-0.1-0.3-0.2-0.3-0.3c-0.1-0.2,0-0.7,0.3-0.9c0.9-0.9,2.1-1.4,3.4-1.4
	c0.6,0,1,0.4,0.5,0.8C56.7,13.7,55.9,14.2,55,14.8z"/>
<path class="st0" d="M44.1,45c-0.2-0.2-0.3-0.5-0.5-0.7c-0.1-0.2-0.1-0.5,0-0.8c0.1-0.4,0.5-0.6,0.9-0.5c0.3,0.1,0.5,0.2,0.7,0.4
	c0.2,0.2,0.3,0.4,0.5,0.6C46.3,45,44.8,46.1,44.1,45z"/>
<path class="st0" d="M14.9,56c-0.4,0-1-0.3-0.9-1c-0.1-0.2,0.5-0.8,0.9-0.9c0.3,0,0.6,0.2,1,0.5c0.2,0.2,0.3,0.5,0,0.7
	C15.5,55.8,15.2,56.1,14.9,56"/>
<path class="st0" d="M54.7,23.1c0.4,0,0.7,0.6,0.4,0.9c-0.4,0.5-0.8,0.7-1.5,0.6c-0.2,0-0.4-0.6-0.4-0.7
	C53.6,23.3,54.1,23,54.7,23.1z"/>
<path class="st1" d="M38.8,42.9c-0.6-2.5-1.3-5-2-7.5c-0.1-0.4-0.8-0.2-0.7,0.2c0.6,2.5,0.9,5.3,2,7.6
	C38.3,43.5,38.9,43.3,38.8,42.9z"/>
<path class="st1" d="M40.8,44.1c-0.6-3.4-1.9-6.7-2.8-10.1c-0.1-0.4-0.7-0.2-0.6,0.2c0.9,3.3,1.6,6.8,2.8,10
	C40.3,44.7,40.8,44.5,40.8,44.1z"/>
<path class="st1" d="M42.6,44.3c-0.8-3.8-2.1-7.5-3.1-11.3c-0.1-0.5-0.8-0.2-0.7,0.2c0.9,3.7,1.6,7.7,3.1,11.3
	C42,44.9,42.7,44.8,42.6,44.3z"/>
<path class="st1" d="M44.3,44.5c-0.9-4.1-2.4-8.1-3.3-12.1c-0.1-0.4-0.7-0.2-0.6,0.2c0.9,4,1.8,8.3,3.4,12.1
	C43.9,45.1,44.4,44.9,44.3,44.5z"/>
<path class="st1" d="M45.8,43.9c-0.8-4-2.2-7.8-3.1-11.8c-0.1-0.4-0.8-0.2-0.7,0.2c0.8,3.9,1.6,8.1,3.1,11.8
	C45.3,44.5,45.9,44.4,45.8,43.9z"/>
<path class="st1" d="M47.1,41.7c-0.8-3.4-1.7-6.8-2.9-10.1c-0.1-0.4-0.8-0.2-0.7,0.2c1.2,3.3,1.9,6.8,2.9,10.1
	C46.6,42.3,47.2,42.2,47.1,41.7z"/>
<path class="st1" d="M46.2,32.5c-0.1-0.5-0.9-0.3-0.7,0.2c0.8,2.6,1.3,5.4,2.4,7.9c0.1,0.3,0.7,0.3,0.7-0.1
	C48.2,37.9,47.1,35.1,46.2,32.5z"/>
<path class="st1" d="M19.4,24.7c-0.2-0.5-0.6-0.9-0.9-1.4c-0.4-0.5-0.7-0.9-1.1-1.4c-0.3-0.4-0.9,0-0.7,0.4c0.4,0.5,0.7,1,1.1,1.5
	c0.3,0.4,0.6,1,1,1.3C19.1,25.3,19.5,25,19.4,24.7z"/>
<path class="st1" d="M21.8,24.6c-1.6-1.6-2.9-3.4-4.3-5.1c-0.3-0.4-1,0.2-0.7,0.5c0.8,1,1.6,2.1,2.5,3.1c0.6,0.7,1.2,1.7,2,2.2
	C21.7,25.5,22.1,25,21.8,24.6z"/>
<path class="st1" d="M24.1,24.2c-2.2-2.6-4.5-5-6.8-7.5c-0.4-0.4-0.9,0.2-0.6,0.6c2.2,2.5,4.4,5.2,6.7,7.6
	C23.9,25.4,24.5,24.7,24.1,24.2z"/>
<path class="st1" d="M27.3,24.6c-1.3-1.9-3.1-3.4-4.7-5c-1.8-1.8-3.5-3.6-5.2-5.5c-0.4-0.4-1,0.2-0.6,0.7c1.7,1.9,3.4,3.7,5.1,5.5
	c1.5,1.6,3,3.5,4.9,4.8C27.1,25.4,27.6,24.9,27.3,24.6z"/>
<path class="st1" d="M29.6,22.9c-3.8-3.7-7.8-7.2-11.7-10.7c-0.3-0.3-0.8,0.2-0.5,0.5c3.8,3.6,7.6,7.3,11.5,10.9
	C29.4,24,30,23.3,29.6,22.9z"/>
<path class="st1" d="M29.8,19.5c-3.3-2.6-6.6-5.1-9.7-7.7c-0.3-0.3-0.8,0.2-0.5,0.5c3.1,2.8,6.3,5.5,9.7,7.9
	C29.7,20.5,30.2,19.8,29.8,19.5z"/>
<path class="st1" d="M29.5,16.3c-1.8-1.5-3.6-2.9-5.4-4.4c-0.4-0.3-0.9,0.2-0.5,0.6c1.8,1.5,3.5,3,5.3,4.5
	C29.3,17.3,29.9,16.7,29.5,16.3z"/>
<path class="st1" d="M29.8,14.3c-0.3-0.5-0.9-0.8-1.3-1.2c-0.5-0.4-1-0.8-1.5-1.2c-0.4-0.3-1,0.3-0.6,0.6c0.5,0.4,1,0.8,1.4,1.2
	c0.4,0.4,0.9,0.9,1.4,1.1C29.5,15,30,14.6,29.8,14.3z"/>
<path class="st1" d="M42.1,25c-1.8-2.7-3.6-5.5-5.4-8.2c-0.3-0.4-0.9,0-0.7,0.4c1.8,2.8,3.5,5.5,5.3,8.3
	C41.7,25.9,42.4,25.5,42.1,25z"/>
<path class="st1" d="M44.7,25c-1.8-3.6-4.3-6.8-6.8-9.8c-0.2-0.3-0.8,0.1-0.5,0.4c2.5,3.1,4.6,6.5,6.7,9.9
	C44.3,25.9,45,25.5,44.7,25z"/>
<path class="st1" d="M47,24c-2.8-3.5-5.4-7.1-8.1-10.7c-0.3-0.3-0.8,0-0.6,0.4c2.6,3.7,5,7.5,8,10.9C46.7,24.9,47.3,24.4,47,24z"/>
<path class="st1" d="M48.2,22.6c-0.7-1.8-2-3.3-3.2-4.8c-1.5-1.9-3-3.8-4.5-5.8c-0.3-0.4-0.9,0-0.6,0.4c2.5,3.4,5.7,6.8,7.5,10.6
	C47.6,23.5,48.4,23.1,48.2,22.6z"/>
<path class="st1" d="M48.9,19.3c-1.9-2.3-3.7-4.6-5.6-6.9c-0.3-0.3-0.8,0-0.6,0.4c1.9,2.4,3.7,4.7,5.5,7.1
	C48.7,20.3,49.3,19.8,48.9,19.3z"/>
<path class="st1" d="M49.3,17.2c-1.3-1.7-2.8-3.3-4-5.1c-0.2-0.3-0.7,0-0.5,0.3c1.2,1.8,2.5,3.7,4.1,5.1
	C49.1,17.8,49.5,17.5,49.3,17.2z"/>
<path class="st1" d="M18.8,44.2c-0.1-0.4-0.4-0.7-0.7-1c-0.2-0.3-0.5-0.6-0.8-0.9c-0.3-0.3-0.7,0.2-0.4,0.5c0.3,0.3,0.5,0.6,0.7,0.9
	c0.2,0.3,0.4,0.6,0.6,0.8C18.6,44.7,18.9,44.5,18.8,44.2z"/>
<path class="st1" d="M21.1,44.5c-1.1-1.3-2.2-2.6-3.5-3.7c-0.3-0.3-0.7,0.2-0.4,0.5c1.2,1.1,2.3,2.3,3.3,3.6
	C20.8,45.3,21.4,44.9,21.1,44.5z"/>
<path class="st1" d="M23.6,44.6c-1.5-1.9-3.1-3.7-4.9-5.4c-0.3-0.3-0.7,0.2-0.4,0.4c1.7,1.6,3.3,3.4,4.7,5.3
	C23.3,45.4,23.9,45,23.6,44.6z"/>
<path class="st1" d="M25.7,44c-1.9-2-3.9-4-5.6-6.2c-0.2-0.3-0.8,0-0.5,0.3c1.7,2.2,3.6,4.5,5.7,6.4C25.6,44.8,26,44.4,25.7,44z"/>
<path class="st1" d="M28,44.1c-2.4-2.7-4.9-5.2-7.1-8.1c-0.2-0.3-0.7,0-0.5,0.3c2.2,2.9,4.4,5.8,7.1,8.3
	C27.9,44.8,28.3,44.4,28,44.1z"/>
<path class="st1" d="M29.1,42.8c-0.6-1.4-1.8-2.5-2.9-3.5l-4.7-4.7c-0.3-0.3-0.7,0.2-0.4,0.4c2.5,2.6,5.4,5,7.4,8
	C28.7,43.3,29.2,43.1,29.1,42.8z"/>
<path class="st1" d="M26.3,37c-1.1-1.3-2.4-2.5-3.6-3.7c-0.3-0.3-0.7,0.2-0.4,0.4c1.2,1.2,2.4,2.6,3.6,3.7
	C26.2,37.7,26.6,37.3,26.3,37z"/>
<path class="st1" d="M24.8,33.6c-0.5-0.4-1-0.8-1.5-1.2c-0.3-0.2-0.7,0.2-0.4,0.4c0.5,0.4,1,0.8,1.5,1.2
	C24.7,34.3,25,33.8,24.8,33.6z"/>
<path class="st1" d="M30.1,23.2c0-2.3-0.1-4.5-0.2-6.8c0.1-1.5,0.5-3.1,0.2-4.6c-0.1-0.3-0.4-0.5-0.7-0.5c-2.4,0-4.9-0.1-7.3-0.1
	c-1.3,0-2.5,0-3.8,0c-0.6,0-1.5-0.1-2,0.4c-0.5,0.6-0.3,1.7-0.3,2.4c0,1.2,0,2.4,0,3.6c0,1.2,0.1,2.4,0.2,3.6c0.1,1,0,2.3,0.2,3.3
	c0.1,0.5,0.3,0.7,0.8,0.8c1,0.2,2.2,0,3.2,0c2.4,0,4.7,0,7.1,0c0.7,0,1.8,0.2,2.3-0.3C30.3,24.7,30.1,23.8,30.1,23.2L30.1,23.2
	L30.1,23.2z M48.9,34.8c-0.7-1.5-2-2.7-3.5-3.4c-3.8-1.7-8.1,0.5-9.8,4.1c0,0.1,0,0.2,0,0.3c-0.1,0.4-0.2,0.8-0.3,1.2
	c-0.5,3.5,2.2,7.4,5.7,8.1c1.8,0.3,3.5-0.3,5.1-1.1c1.8-0.8,2.8-2.1,3.2-4C49.5,38.2,49.7,36.4,48.9,34.8L48.9,34.8L48.9,34.8z
	 M45.9,42.5c-1.5,0.8-3.4,1.6-5.1,1c-1.8-0.6-3.3-2.1-3.9-3.9c-1.2-3.3,0.9-6,3.7-7.2c1.6-0.5,3.3-0.5,5,0.5
	c1.6,0.9,2.6,2.5,2.6,4.3C48.2,39.3,47.8,41.5,45.9,42.5L45.9,42.5L45.9,42.5z M31.2,43.9c-1.4-2.1-2.7-4.3-3.9-6.5
	c-0.6-1-1.1-2.1-1.7-3.1c-0.5-0.9-0.9-2.1-1.5-2.9c-1.1-1.4-2.2,0.4-2.7,1.3c-0.7,1.2-1.3,2.5-1.9,3.7c-1.5,2.5-3.1,4.9-4.6,7.4
	c-0.3,0.4,0.1,0.9,0.6,0.9c2.7,0.1,5.3,0.1,8,0.2c2.4,0.1,4.9,0.3,7.3-0.1C31.3,44.8,31.4,44.2,31.2,43.9L31.2,43.9L31.2,43.9z
	 M23.2,43.7c-2.2,0-4.4-0.1-6.7-0.1c1.3-2.2,2.6-4.5,3.8-6.7c0.4-0.7,0.8-1.3,1.3-2c0.2-0.3,1.1-2.3,1.4-2.4c0-0.2,0-0.2,0.1,0.1
	c0.1,0.2,0.2,0.4,0.4,0.7c0.2,0.4,0.5,0.9,0.7,1.3c1.7,3.1,3.5,6.1,5.3,9.1C27.5,43.9,25.4,43.8,23.2,43.7L23.2,43.7L23.2,43.7z
	 M50.4,18.2c-0.3-0.8-0.9-1.6-1.3-2.3C48.6,15,48,14,47.4,13c-0.3-0.5-0.5-1.2-1.1-1.4c-0.9-0.3-2.1-0.1-3-0.1
	c-1.6-0.1-4-0.7-5.2,0.7c-0.6,0.7-0.9,1.5-1.3,2.3c-0.8,1-1.5,2.1-2.1,3.2c-0.7,1.4,1,3.2,1.6,4.3c0.7,1.2,1.3,3.4,2.9,3.6
	c2,0.2,4.1,0.1,6,0.1c1.7,0,2.2-1.6,3-3c0.6-0.9,1.1-1.9,1.7-2.9C50.4,19.3,50.6,18.9,50.4,18.2L50.4,18.2L50.4,18.2z M48.5,19.9
	c-0.7,1.2-1.3,2.4-2.1,3.5c-0.6,0.8-0.8,1-1.8,1c-0.6,0-1.1,0-1.7,0c-1.2,0-3.1,0.3-4-0.6c-0.4-0.4-0.7-1.2-1-1.8
	c-0.3-0.6-0.7-1.2-1-1.8c-0.3-0.5-0.9-1.3-1-1.9c0.5-0.9,1-1.8,1.6-2.7c0.6-0.9,1.1-2.2,2-2.6c1-0.5,2.3-0.2,3.3-0.2
	c1,0,2,0.1,3,0.1c0.6,1.1,1.3,2.2,1.9,3.3c0.3,0.6,0.8,1.2,1,1.8C49.1,18.9,49,19.1,48.5,19.9L48.5,19.9L48.5,19.9z M28.7,24.3
	c-0.3,0-0.5,0.1-0.8,0c-0.4,0-0.8,0-1.3,0c-1.8,0-3.5,0-5.3-0.1c-0.9,0-1.9,0-2.8,0c-0.1,0-1,0.1-1,0.2c-0.1-0.2-0.1-1.4-0.1-1.5
	c-0.1-1.8-0.2-3.6-0.3-5.5c0-0.9,0-1.9,0-2.9c0-1-0.2-1.8,1-2c1.8-0.2,3.8,0,5.6,0c1.6,0,3.3,0,4.9,0.1c0.1,1.5-0.4,2.9-0.1,4.5
	c0.1,0.5,0.2,1.1,0.3,1.6c0,0.8,0,1.6,0,2.4c0,0.3,0,0.7,0.1,1.1c0,0.1,0,0.2-0.1,0.2c0,0.1,0,0.3,0.1,0.3c0,0.3,0,0.7-0.1,0.9
	C29.1,24.1,29.1,24.3,28.7,24.3z"/>
</svg>
