<?xml version="1.0" encoding="utf-8"?>
<!-- Generator: Adobe Illustrator 27.3.1, SVG Export Plug-In . SVG Version: 6.00 Build 0)  -->
<svg version="1.1" id="Vrstva_1" xmlns="http://www.w3.org/2000/svg" xmlns:xlink="http://www.w3.org/1999/xlink" x="0px" y="0px"
	 viewBox="0 0 89.6 84.1" style="enable-background:new 0 0 89.6 84.1;" xml:space="preserve">
<style type="text/css">
	.st0{fill:#FD636B;}
	.st1{fill-rule:evenodd;clip-rule:evenodd;fill:#2B2722;}
</style>
<path class="st0" d="M47.5,7.6c-0.3,2.5-0.5,5.2,2.2,6.7c2.7,1.5,4.9-0.1,7.1-1.5c1.6-1,3.1-2.1,4.9-2.8c1.7-0.6,3.5-0.4,4.5,1.4
	c1.1,1.8,0.1,3-1.3,4.2c-2.2,1.8-1.9,4.4,0.8,5.8c1.3,0.7,2.8,0.9,4.2,1.5c1.1,0.5,2.4,1,3.2,1.8c1.6,1.5,1.4,3.3-0.3,4.7
	c-0.9,0.7-2,1.3-2.9,2c-1.9,1.5-2,3.1-0.3,4.7c0.9,0.8,1.9,1.4,2.9,2.1c3.7,2.7,5.4,6.4,5,11c-0.2,2.5-1.6,4.3-3.6,4.7
	c-2.5,0.5-3.7-1-4.8-3c-0.6-1.2-1.2-2.4-2-3.5c-0.9-1.3-2.3-2-3.9-1.2c-1.6,0.8-1.4,2.2-1.1,3.7c1.7,6.2,3.4,12.4,5.1,18.6
	c0.4,1.6,0.8,3.4,0.6,5.1c-0.3,3.3-3.6,4.6-6,2.4c-1.4-1.3-2.3-3.1-3.1-4.9c-1.1-2.2-1.6-4.8-2.9-6.9c-2.3-3.9-5.4-4.4-9.1-1.9
	c-2.9,1.9-4,1.8-6.4-0.8c-2.7-2.9-5.9-2.6-7.9,0.8c-0.9,1.5-1.4,3.2-2.1,4.7c-1.1,2.5-2.9,3.9-5.7,3.8c-2.3-0.1-4.1-1.1-5-3.3
	c-1-2.5-0.2-4.7,1.6-6.7c0.9-1,2-3,1.6-3.6c-0.8-1.1-2.5-1.9-4-2.2c-1.6-0.3-3.4,0.2-5.1,0.3c-1,0.1-2,0.1-3.1,0.1
	c-3.1-0.1-5.4-1.5-6-3.6c-0.7-2.4,0.7-5.6,3.4-6.8c2.4-1.1,5.1-1.5,7.6-2.2c1.4-0.3,2.9-0.3,4.1-1c1-0.6,2.3-1.8,2.3-2.8
	c0-1-1-2.5-2-3.1c-1.3-0.7-3-0.6-4.5-1c-2-0.5-4.2-0.7-6-1.7c-0.9-0.5-1.7-2.4-1.5-3.5c0.1-1,1.6-2.1,2.7-2.5
	c1.5-0.5,3.2-0.4,4.9-0.6c4.1-0.3,5.7-2.7,4.5-6.6c-0.4-1.3-1-2.5-1.4-3.7c-0.7-2-1.1-4.1,0.7-5.7c1.9-1.8,4.3-1.8,6.6-0.8
	c1.4,0.6,2.7,1.6,4,2.4c0.5,0.3,1.1,0.7,1.6,1c4.6,2.6,6.1,1.7,6.5-3.5c0.1-2,0.5-4.1,1.2-5.9c0.8-2.4,3.1-3.6,5.1-3.3
	c1.9,0.4,3,2,3,5C47.5,6.2,47.5,6.9,47.5,7.6z"/>
<path class="st0" d="M14.7,18.8c0.9,1.2,0.3,3-1.1,3.5C11.4,23,9.4,23,7.3,21.8c-3-1.7-4.3-4.5-4.4-7.8c-0.1-2.1,1.3-3.3,3.3-2.9
	c1.5,0.3,3.3,1,4.3,2.1C12,14.9,13.3,16.8,14.7,18.8z"/>
<path class="st0" d="M42.6,69.7c0.8-1.9,3.6-2,4.3,0c0.1,0.4,0.2,0.9,0.1,1.5c-0.4,2.3-1.5,4.4-2.5,6.6c0,0.1-1.9-0.3-2.3-0.9
	C41.3,75.3,41.6,72.1,42.6,69.7z"/>
<path class="st0" d="M83.6,37.4c-1.5-0.3-3.7-0.1-4.2-2.5c-0.3-1.5,1.7-2.8,4.3-3c2.7-0.1,5.2,1.2,5.2,2.8
	C89,36.2,86.7,37.4,83.6,37.4z"/>
<path class="st0" d="M8.5,59c1-0.1,1.7,1.1,1.1,1.9c-1.9,2.4-4,4.4-7,5.4C2,66.5,1,66.2,0.5,65.7c-0.3-0.2-0.2-1.2,0-1.7
	C1.5,61.6,5.2,59.4,8.5,59z"/>
<path class="st0" d="M70.4,16.6c1.1-0.8,2.2-1.5,3.3-2.2c0.3-0.2,0.8,0,1.3,0.2c0.3,0.1,0.5,0.4,0.4,0.7c-0.1,0.5-0.2,1-0.4,1.3
	c-1.2,1.1-2.5,1.9-4,2C70.1,18.6,69.5,17.2,70.4,16.6z"/>
<path class="st0" d="M81.1,26.1c0.5,0.5,0.4,1.4-0.2,1.8c-0.4,0.3-0.7,0.5-1,0.4c-0.3,0-0.5-0.3-0.8-0.6c-0.4-0.5-0.4-1.1,0.1-1.6
	c0.3-0.3,0.6-0.6,1-0.7C80.4,25.5,80.7,25.8,81.1,26.1z"/>
<path class="st0" d="M30.3,4.3c1,0.6,1,2,0,2.6c-0.1,0.1-0.3,0.1-0.4,0.1c-0.1,0-0.3-0.1-0.4-0.1c-0.8-0.5-0.9-1.6-0.3-2.3
	c0.2-0.2,0.4-0.3,0.6-0.4C30,4.2,30.1,4.2,30.3,4.3z"/>
<path class="st0" d="M67.7,81.4c1,0.5,0.9,2.1-0.1,2.5C67.5,84,67.3,84,67.2,84c-0.2,0-0.4-0.2-0.5-0.3c-0.6-0.6-0.5-1.5,0.1-2.1
	c0.2-0.2,0.4-0.3,0.6-0.3C67.4,81.3,67.6,81.3,67.7,81.4z"/>
<g>
	<path class="st1" d="M20.8,18.7c-1.2,1.9-2.4,3.8-3.6,5.7c-1.1,1.7-2.3,3.3-3.1,5.2c-0.2,0.5,0.6,0.9,0.9,0.5
		c1.4-1.4,2.3-3.3,3.3-5c1.2-1.9,2.3-3.8,3.5-5.7C22.3,18.6,21.3,18,20.8,18.7z"/>
	<path class="st1" d="M25.4,18c-3.4,6.4-8.8,11.4-12.2,17.7c-0.5,0.9,0.9,1.6,1.4,0.8c3.7-6.1,8.5-11.6,11.7-18
		C26.6,18,25.7,17.5,25.4,18z"/>
	<path class="st1" d="M30,17.9c-0.7,1.2-1.4,2.4-2.1,3.6c-0.6,1.1-1.4,2.1-1.9,3.2c-0.2,0.6,0.6,0.9,1,0.5c0.9-0.9,1.4-2.1,2-3.2
		c0.7-1.2,1.3-2.4,2-3.6C31.5,17.8,30.4,17.2,30,17.9z"/>
	<path class="st1" d="M32.9,19.9c-1.9,2.6-4.1,5.5-5.1,8.5c-0.3,0.8,0.8,1,1.2,0.5c0.9-1.3,1.6-2.9,2.4-4.3c0.8-1.4,1.7-2.8,2.7-4.1
		C34.6,19.8,33.4,19.2,32.9,19.9z"/>
	<path class="st1" d="M35.7,22.5c-0.7,1.2-1.5,2.3-2.2,3.5c-0.7,1.1-1.6,2.3-2.1,3.5c-0.2,0.6,0.4,1.2,0.9,0.7
		c0.9-1,1.5-2.2,2.2-3.3c0.8-1.2,1.5-2.5,2.3-3.7C37.2,22.4,36.1,21.9,35.7,22.5z"/>
	<path class="st1" d="M40.2,21.8c-7.1,11.5-14.6,23-20.8,34.9c-0.5,1,0.9,1.7,1.5,0.8C28,46.1,34.3,34,41.1,22.4
		C41.5,21.8,40.5,21.2,40.2,21.8z"/>
	<path class="st1" d="M28.6,34.1C24,41.5,18.3,48.4,14.1,56c-0.3,0.6,0.5,1.3,1,0.8c5.7-6.4,10-14.8,14.3-22.2
		C29.8,34,28.9,33.5,28.6,34.1z"/>
	<path class="st1" d="M21.7,37.2c-3.7,5.2-7.9,10.2-11.1,15.7c-0.4,0.6,0.5,1.3,1,0.8c4.1-4.9,7.5-10.6,11.1-15.9
		C23.2,37.1,22.2,36.6,21.7,37.2z"/>
	<path class="st1" d="M20.3,33.2c-3.1,4.5-7,8.7-9.7,13.4c-0.4,0.6,0.5,1.3,1,0.8c3.8-3.9,6.7-9.1,9.7-13.6
		C21.7,33.1,20.7,32.6,20.3,33.2z"/>
	<path class="st1" d="M44,21.5c-4,6.7-8.2,13.4-12,20.2c-0.4,0.8,0.8,1.4,1.2,0.7C37.2,35.7,41,28.8,44.8,22
		C45.1,21.5,44.3,21,44,21.5z"/>
	<path class="st1" d="M30.6,45.9c-2.5,4.2-5.2,8.1-7.9,12.1c-0.3,0.5,0.4,1,0.8,0.6c3-3.9,5.5-8.1,7.9-12.3
		C31.6,45.9,30.9,45.5,30.6,45.9z"/>
	<path class="st1" d="M47.6,22c-3.6,5.9-8,11.7-11,18c-0.3,0.6,0.5,1.3,1,0.7c4.2-5.6,7.4-12.2,10.9-18.2
		C48.9,21.9,47.9,21.4,47.6,22z"/>
	<path class="st1" d="M54.1,17.5c-4.4,7.6-9.7,14.9-13.7,22.8c-0.3,0.6,0.6,1.3,1,0.7c5.3-7,9.3-15.4,13.5-23
		C55.2,17.4,54.4,17,54.1,17.5z"/>
	<path class="st1" d="M58,18c-4.5,7.2-9.2,14.2-13.4,21.6c-0.5,0.8,0.8,1.5,1.3,0.7c4.6-7.1,8.7-14.5,13-21.8
		C59.3,17.9,58.4,17.4,58,18z"/>
	<path class="st1" d="M62.2,17.5c-4.6,7.6-9.5,15-14.2,22.5c-0.4,0.7,0.7,1.3,1.1,0.6c5.1-7.2,9.6-14.9,14-22.6
		C63.4,17.4,62.5,17,62.2,17.5z"/>
	<path class="st1" d="M54.3,37.3c-0.6,0.8-1.2,1.7-1.8,2.5c-0.5,0.8-1.2,1.6-1.4,2.5c-0.1,0.6,0.5,0.9,1,0.5
		c0.7-0.6,1.1-1.6,1.6-2.4c0.6-0.9,1.1-1.7,1.7-2.6C55.9,37.3,54.8,36.7,54.3,37.3z"/>
	<path class="st1" d="M62.8,31.2c-3.1,4.6-6.3,9.1-9.6,13.6c-0.5,0.7,0.7,1.3,1.2,0.7c3.3-4.5,6.3-9.1,9.3-13.8
		C64,31.2,63.1,30.7,62.8,31.2z"/>
	<path class="st1" d="M69.4,27.6c-4.7,7.7-10.3,15.1-14.8,22.9c-0.4,0.7,0.6,1.5,1.1,0.8c5.6-7.1,10-15.5,14.5-23.3
		C70.5,27.5,69.7,27.1,69.4,27.6z"/>
	<path class="st1" d="M70.9,34.7c-4.8,6.7-9.8,13.2-14.3,20.1c-0.5,0.7,0.7,1.6,1.2,0.9C62.7,49,67.2,42,71.8,35.2
		C72.2,34.6,71.3,34.1,70.9,34.7z"/>
	<path class="st1" d="M71.2,41.3c-3.6,5.3-7.5,10.3-10.9,15.7c-0.4,0.6,0.6,1.4,1.1,0.8c3.9-5,7.3-10.6,10.8-16
		C72.6,41.2,71.6,40.7,71.2,41.3z"/>
	<path class="st1" d="M71.4,47.5c-2.3,3.3-5.2,6.6-7.1,10.1c-0.3,0.6,0.5,1.3,1,0.8c2.8-3,4.9-6.9,7.2-10.2
		C73.1,47.4,71.9,46.8,71.4,47.5z"/>
	<path class="st1" d="M68,22.3c-0.8,1.6-2,3.2-2.7,4.9c-0.2,0.5,0.4,1.1,0.8,0.6c1.2-1.4,2-3.3,2.8-5C69.2,22.2,68.3,21.7,68,22.3z"
		/>
	<path class="st1" d="M59.4,29.5c-0.3,0.6-0.7,1.2-1,1.8c-0.2,0.5,0.3,0.8,0.7,0.5c0.6-0.5,0.9-1.2,1.2-1.8
		C60.5,29.4,59.6,28.9,59.4,29.5z"/>
	<path class="st1" d="M65.7,19c-1.2,1.7-2.6,3.6-3.2,5.5C62.3,25,63,25.4,63.3,25c0.6-0.8,1-1.8,1.5-2.7c0.6-1,1.1-1.9,1.8-2.8
		C67,18.9,66.1,18.5,65.7,19z"/>
	<path class="st1" d="M30.1,31.1c-0.5,0.9-1.3,1.9-1.6,2.9c-0.1,0.5,0.5,0.8,0.9,0.5c0.7-0.8,1.2-1.9,1.7-2.8
		C31.3,31,30.4,30.5,30.1,31.1z"/>
	<path class="st1" d="M73.6,46c-0.4-4.7-1-9.3-1.7-14c-0.3-2.2-0.7-4.3-1.1-6.5c-0.3-1.9-0.6-3.9-1.4-5.6c-1.7-3.3-5.9-3.2-9.2-3.3
		c-2.2-0.1-4.4,0-6.6,0.2c-1.5,0.2-3.4,0.2-4.3,1.5c-0.4,0.5-0.4,1.5-0.9,1.9c-0.6,0.5-1.9,0.3-2.6,0.3c-2.6,0-5.2,0-7.8,0
		c-0.8,0-2.3,0.3-3-0.4c-0.5-0.5-0.6-1.6-1-2.2c-0.8-1.1-2.1-1.5-3.4-1.6c-1.8-0.1-3.6,0.4-5.3,0.6c-2,0.3-4.2,0.5-6.2,1
		c-3.7,1.1-4.4,4.2-5.2,7.6c-1,4.6-2.1,9.1-3.1,13.7c-0.6,2.6-1.2,5.2-1.7,7.8c-0.4,1.9-0.6,4,0.2,5.9c1.4,3.3,5.3,5.5,8.7,6
		c3.4,0.5,6.9-0.4,9.2-3.1c0.2-0.3,0.4-0.5,0.6-0.8c1.1-1.2,1.9-2.7,2.4-4.2c1.4-3.9,1.6-8.3,6.7-8.7c2.1-0.1,4.2,0,6.3,0.1
		c2,0,4,0,5.9,0.6c2.3,0.8,2.8,2.3,3.2,4.5c0.4,2,0.9,4,1.9,5.9c1.6,3,4.4,5.4,7.8,5.9c3.1,0.4,7.5-0.5,10-2.5
		C75.1,54.1,73.9,49.4,73.6,46L73.6,46L73.6,46z M65.8,26.5L65.8,26.5c0.9,1.8,0.4,4.1-1.6,4.9c-1.1,0.4-2.1,0.4-3.1-0.3
		c-0.8-0.5-1.6-1-1.9-1.9c-0.6-1.8,0.5-4,2.4-4.5C63,23.9,65,25,65.8,26.5L65.8,26.5L65.8,26.5z M63.2,29.7
		c-0.6,0.1-1.9-0.5-2.2-1.1c-0.3-0.6,0-1.4,0.5-1.9c0.2,0,0.3,0,0.5-0.1C64.1,25.7,65.3,29.3,63.2,29.7L63.2,29.7L63.2,29.7z
		 M58.9,32c1.4,1.4,0.9,3.9-0.7,4.9c-0.8,0.5-2,0.6-2.9,0.4c-1-0.2-1.7-0.8-2.1-1.7c-0.5-1-0.6-1.9-0.1-2.9c0.3-0.7,0.8-1.2,1.5-1.4
		C55.8,30.4,57.8,31,58.9,32L58.9,32L58.9,32z M57.3,35.1c-0.5,0.5-1.8,0.5-2.3-0.1c-0.4-0.4-0.5-1.2-0.2-1.8c0.1,0,0.2,0,0.3,0
		c0.3-0.1,0.7-0.5,1-0.6c0.3,0,0.8,0.2,1,0.3C57.9,33.4,58,34.5,57.3,35.1L57.3,35.1L57.3,35.1z M45.1,35.9c1.1,0.3,0.7,2-0.4,1.7
		c-1.8-0.4-3.6-0.1-5.4-0.2c-1.2-0.1-1.2-1.8,0-1.8C41.1,35.4,43.3,35.4,45.1,35.9L45.1,35.9L45.1,35.9z M32,32.3
		c0,0.9,0.1,1.6-0.7,2.1c-0.9,0.5-2.3,0.4-3.5,0.3c-0.1,0.9,0,1.8,0.1,2.7c0.1,0.6-0.6,1-1.2,0.9C26,38.2,25.3,38,24.6,38
		c-0.6,0-1.3,0.2-1.9,0.1c-0.4-0.1-0.8-0.2-1.1-0.5c-0.6-0.7-0.6-2.2-0.5-3.3c-1.1,0.2-2.4,0.3-3.1-0.5c-0.9-1-0.2-3.4-0.2-4.6
		c0-0.3,0.2-0.7,0.6-0.8c1.1-0.2,2.1-0.3,3.2-0.3c-0.1-1.2-0.1-2.9,0.6-3.7c0.5-0.5,1.3-0.5,2.1-0.4c1.1-0.2,2.5-0.3,3.2,0.3
		c1,0.9,0.5,2.9,0.6,4.2c1.1,0.1,2.6-0.1,3.4,0.6C32.2,29.8,32,31.5,32,32.3L32,32.3L32,32.3z M27.2,32.8c-0.5-0.1-1.1,0.1-1.1,0.7
		c-0.2,1-0.2,1.9-0.2,2.9c-0.3-0.1-0.6-0.1-1-0.1c-0.4,0-1,0.1-1.4,0c-0.6-0.2-0.4,0-0.5-1c0-0.7,0-1.3,0-2c0-0.5-0.4-1-0.9-0.9
		c-0.5,0.1-0.9,0.1-1.4,0.2c-0.2,0-0.5,0-0.7,0.1c-0.5,0.2-0.7,0.1-0.5-0.3c-0.2-0.5-0.1-1.5,0.1-2.3c1-0.2,2-0.3,3.1-0.2
		c0.4,0,0.8-0.4,0.8-0.8c0-0.7-0.2-1.7,0-2.5c0.1-0.3,0.2-0.5,0.4-0.7c0.4,0,0.9,0.1,1.3,0.1c0.2,0,0.5,0,0.7,0
		c0.7-0.2,0.8-0.1,0.6,0.2c0.3,0.7-0.2,2.3,0,3.1c0.4,1.6,2.3,1.2,3.7,1.5c0.1,0.7,0.2,1.6,0.1,2.3C29.2,33,28.1,32.9,27.2,32.8
		L27.2,32.8L27.2,32.8z M71.4,53.5c-0.7,1.9-2.9,2.4-4.6,2.8c-4,1-7.6,0.1-9.9-3.5C56,51.4,55.4,49.7,55,48
		c-0.4-1.6-0.4-3.3-1.3-4.8c-1.5-2.4-4.5-3.1-7.2-3.3c-2-0.2-4-0.1-6-0.2c-1.8,0-3.6-0.2-5.4,0.2c-3.2,0.7-5,3.2-5.9,6.2
		c-0.4,1.3-0.6,3-0.9,4.5c-0.4,1.1-1,2.1-1.7,3.1c-0.4,0.5-0.8,1-1.3,1.4c-0.1,0.1-0.3,0.1-0.4,0.2c-0.3,0.1-0.4,0.3-0.5,0.5
		c-2,1.2-4.4,1.6-6.8,0.9c-3.9-1-7-3.9-6.4-8.1c0.5-3.9,1.7-7.7,2.6-11.5c0.9-3.8,1.7-7.6,2.6-11.4c0.4-1.7,0.6-3.9,2.1-5
		c1.6-1.1,4.2-1.1,6-1.3c1.6-0.2,3.2-0.5,4.8-0.7c0.7-0.1,1.6-0.2,2.2,0.1c1,0.4,1,1.2,1.4,2.1c1.4,2.9,5.4,2,8,2
		c1.9,0,3.9,0.1,5.8,0c1.2,0,2.4-0.1,3.4-0.9c1.2-1,1.1-2.5,2.9-2.7c2.1-0.3,4.1-0.4,6.2-0.3c2,0,4.1,0,6,0.5c2.1,0.5,2.6,2.3,3,4.2
		c0.8,4.1,1.4,8.2,2,12.3c0.5,3.9,1,7.8,1.3,11.7C71.5,49.4,72.1,51.8,71.4,53.5z"/>
</g>
</svg>
