<?xml version="1.0" encoding="utf-8"?>
<!-- Generator: Adobe Illustrator 27.3.1, SVG Export Plug-In . SVG Version: 6.00 Build 0)  -->
<svg version="1.1" id="Vrstva_1" xmlns="http://www.w3.org/2000/svg" xmlns:xlink="http://www.w3.org/1999/xlink" x="0px" y="0px"
	 viewBox="0 0 77 77" style="enable-background:new 0 0 77 77;" xml:space="preserve">
<style type="text/css">
	.st0{fill:#3BE8B0;}
	.st1{fill-rule:evenodd;clip-rule:evenodd;fill:#2B2722;}
</style>
<path class="st0" d="M67.6,65.6c-2.2,0.5-3.6-0.9-4.6-2.5c-1-1.5-1.6-3.3-2.4-4.9c-0.7-1.4-1.2-2.9-2-4.2c-2.3-3.3-6.1-3.2-8.3,0.1
	c-0.9,1.3-1.8,1.4-2.9,0.3c-0.4-0.4-0.7-0.8-1-1.1c-1.6-1.8-3.2-1.9-4.8-0.1c-1.1,1.2-2,2.6-3,3.9c-1.7,2.3-4.1,3.1-6.8,2.6
	c-2.3-0.4-3.4-1.9-3.3-4.1c0-0.7,0.1-1.3,0.2-2c0.3-2.4-1.2-4.4-3.6-4.3c-1.7,0.1-3.4,0.7-5.1,1c-1.9,0.4-3.8,1.1-5.7,1.2
	c-3.3,0.2-5.7-1.5-6.3-3.9c-0.7-2.6,0.9-5.9,3.6-7.3c2.1-1.1,4.3-1.5,6.7-0.7c0.7,0.2,2,0.2,2.3-0.2c0.4-0.6,0.4-1.8,0-2.4
	c-0.9-1.5-2.1-2.9-3.3-4.3c-1-1.3-2.3-2.3-3.2-3.7c-2.5-3.8-0.3-8.1,4.3-8.2c1.6,0,3.2,0.6,4.8,1c0.6,0.2,1.2,0.6,1.8,0.7
	c1.3,0.4,2.1-0.5,1.7-1.8c-0.2-0.6-0.5-1.2-0.8-1.8c-0.8-1.3-1.2-2.6-0.1-4.1c1.1-1.5,2.7-2.3,4.4-1.8c1.6,0.5,3.1,1.4,4.5,2.3
	c1,0.7,1.8,1.8,2.8,2.5c1.8,1.4,3.5,1.3,4.9-0.4c1.3-1.7,2.3-3.6,3.2-5.6c0.8-1.8,1.2-3.8,1.9-5.7c0.4-0.9,1-1.8,1.6-2.6
	c1.2-1.3,2.7-1.9,4.4-1.4c1.7,0.5,2.5,1.8,2.8,3.4c0.1,0.5,0.1,1.1,0.3,2.1c-0.2,0.7-0.5,1.8-0.8,2.8c-0.9,2.4-1.9,4.8-2.8,7.2
	c-0.4,1.2-0.8,2.7,0.3,3.7c1.1,1,2.5,0.3,3.7-0.1c1.2-0.5,2.3-1.1,3.5-1.4c2.3-0.7,3.8,0.4,3.8,2.8c0,1.4-0.4,2.8-0.7,4.2
	c-0.7,3.4-0.3,4.6,2.6,6.6c0.8,0.6,1.6,1.2,2.3,1.9c1.5,1.7,1.4,3.7-0.2,5.2c-0.6,0.6-1.3,1-2,1.5c-1.8,1.3-2.2,2.7-1.1,4.6
	c0.9,1.6,2.1,3,3.3,4.4c2.1,2.6,3.1,5.6,3,9c0,0.3,0,0.7-0.1,1C70.6,63.2,69.8,65,67.6,65.6"/>
<path class="st0" d="M58.8,15.8c-0.6,0.4-1.4-0.2-1.1-0.9c0.8-2.7,3.1-5.1,5.3-5.5c1.5-0.3,3.1,0.2,3.6,1.6c0.3,0.9,0.4,2.1,0,3
	c-0.4,1.2-1.7,1.6-3,1.3C61.9,15,60.3,15,58.8,15.8z"/>
<path class="st0" d="M40.2,65.2c0.7-2.4,1.6-4.7,2.5-7.1c0.2-0.4,0.6-0.8,1-1.1c0.9-0.6,1.3-0.4,1.5,0.7c0.1,0.6,0.1,1.1,0.1,1.4
	c0,2.9-0.7,5.3-2.7,7.2"/>
<path class="st0" d="M67.4,30.8c-0.6-0.3-1.1-1.4-1-1.9c0.2-0.6,1-1.4,1.7-1.5c1.9-0.5,3.8,0,5.2,1.4c0.5,0.5,0.9,1.6,0.8,2.2
	c-0.1,0.4-0.7,0.6-1.2,0.8C72.3,32,71.7,32,71.2,32C69.3,32,68.4,31.4,67.4,30.8z"/>
<path class="st0" d="M40.3,12.3c-0.3,0.8-1.4,0.9-1.9,0.2c-0.7-1.2-0.8-2.6,0-3.8c0.3-0.4,0.9-0.9,1.2-0.9c0.4,0,1,0.7,1.1,1.1
	c0,1-0.1,2.1-0.3,3.1C40.4,12.1,40.3,12.2,40.3,12.3z"/>
<path class="st0" d="M14.1,36.8c-0.1,0-0.2,0-0.3,0c-0.5-0.1-1.2-0.3-1.9-0.6c-0.4-0.2-0.8-0.8-0.8-1.2c0-0.4,0.6-1,1-1
	c1.2,0,2.4,0.1,3.5,0.5c0.1,0,0.2,0.1,0.2,0.2c0.5,0.6,0.3,1.5-0.3,1.9c-0.1,0.1-0.2,0.1-0.4,0.2C14.9,36.8,14.6,36.8,14.1,36.8z"/>
<path class="st0" d="M49.2,60c0.1-0.1,0.1-0.3,0.2-0.4c0.3-0.7,1.2-0.9,1.8-0.5c0.3,0.2,0.5,0.4,0.7,0.7c0.4,0.8,0.5,1.9,0.4,2.8
	c-0.1,1.2-1.2,1.5-2,0.6c-0.5-0.6-0.8-1.4-1.1-2.2C49,60.7,49,60.3,49.2,60z"/>
<path class="st1" d="M30.7,32c-0.6,0.9-1.2,1.9-1.8,2.8c-0.3,0.6,0.5,1,0.9,0.5c0.6-0.9,1.2-1.9,1.8-2.8C31.9,31.9,31,31.4,30.7,32z
	"/>
<path class="st1" d="M32.2,33.9c-0.1,0.1-0.1,0.2-0.2,0.3c0.3-0.5,0.5-1,0.7-1.5c0.2-0.5-0.5-0.9-0.7-0.4c-0.5,1.1-1.2,2.1-1.9,3.1
	c-0.2,0.4,0.3,0.8,0.6,0.5c0.2-0.2,0.3-0.4,0.5-0.6c-0.1,0.2-0.3,0.4-0.4,0.7c-0.2,0.3,0.3,0.7,0.6,0.4c0.5-0.6,1-1.4,1.4-2.1
	C33.3,33.8,32.5,33.4,32.2,33.9z"/>
<path class="st1" d="M48.7,25.2c-0.5,0.7-1,1.5-1.3,2.3c-0.1,0.4,0.4,0.7,0.7,0.4c0.6-0.7,1-1.5,1.4-2.2
	C49.8,25.1,49,24.7,48.7,25.2z"/>
<path class="st1" d="M50,25.3c-0.8,1.1-1.6,2.2-2.2,3.4c-0.3,0.5,0.5,1,0.8,0.5c0.6-1.2,1.2-2.2,2-3.3C51.1,25.5,50.4,24.9,50,25.3
	L50,25.3z"/>
<path class="st1" d="M50.8,26.3c-0.5,1-1.2,1.9-1.6,3c-0.1,0.4,0.4,0.7,0.7,0.4c0.7-0.8,1.1-2,1.7-2.9C51.8,26.3,51,25.8,50.8,26.3
	L50.8,26.3z"/>
<path class="st1" d="M42.6,45.2c-0.3,0.6-0.6,1.1-0.9,1.6c-0.3,0.5-0.8,1-1,1.6c-0.2,0.4,0.2,0.7,0.5,0.4c0.4-0.4,0.7-1,1-1.5
	c0.3-0.6,0.6-1.1,0.9-1.7C43.4,45.1,42.8,44.8,42.6,45.2L42.6,45.2z"/>
<path class="st1" d="M43.7,45.5c-0.6,1.2-1.4,2.5-1.8,3.7c-0.1,0.4,0.4,0.5,0.6,0.2c0.7-1.1,1.2-2.5,1.8-3.7
	C44.5,45.4,43.9,45.1,43.7,45.5L43.7,45.5z"/>
<path class="st1" d="M44.7,46.3c-0.5,1.1-1.1,2.1-1.6,3.2c-0.2,0.4,0.3,0.8,0.6,0.5c0.8-0.9,1.3-2.2,1.7-3.3
	C45.6,46.2,44.9,45.8,44.7,46.3L44.7,46.3z"/>
<path class="st1" d="M60.4,31.8c-1.9-8.8-9.7-16.1-18.9-15.9c-5.7,0.2-11,2.8-14.7,6.9c-0.2,0-0.3,0.1-0.4,0.3
	c-0.3,0.4-0.6,0.8-0.9,1.3c-1.5,2-2.6,4.2-3.3,6.6c-0.5,1.6-0.8,3.3-0.9,5c-0.1,4.6,1.3,9.1,4.2,12.7c5.6,7.1,15.5,9.4,23.7,5.6
	C57.7,50.6,62.4,41,60.4,31.8L60.4,31.8L60.4,31.8z M28.4,36.8c-0.7,1.4-1.3,2.7-1.9,4.1c-1-0.2-1.9-0.5-2.9-0.9c-0.1,0-0.2,0-0.3,0
	c-0.2-0.9-0.3-1.8-0.3-2.7c-0.1-2.5,0.3-4.8,1.2-7c0.4-0.9,0.9-1.8,1.4-2.7c1.6-0.1,3.1-0.1,4.6,0c0,1,0,2,0.1,3
	c-2.3,0.7-3,4.1-1.8,6C28.4,36.7,28.4,36.8,28.4,36.8L28.4,36.8L28.4,36.8z M25.9,42.3c-0.3,0.9-0.6,1.8-0.9,2.8
	c-0.6-1.1-1.1-2.3-1.4-3.6C24.4,41.9,25.1,42.1,25.9,42.3L25.9,42.3L25.9,42.3z M26.2,46.9c0.1-0.6,0.4-1.4,0.5-1.9
	c0.2-0.8,0.4-1.6,0.7-2.4c2.5,0.5,5,0.5,7.5,0.4c0.6,0.7,1.2,1.4,1.9,2c0.6,0.6,2.2,1.4,2.6,2.2c0,0,0,0.1,0.1,0.1
	c-0.1,0.6,0,1.3,0.2,1.9c-2.3,1.6-4.8,2.3-7.6,2.7c-0.1,0-0.1,0-0.2,0c-0.1,0-0.1,0-0.2,0c0,0-0.1,0-0.1,0c-1.1-0.7-2.2-1.5-3.2-2.4
	C27.6,48.7,26.8,47.9,26.2,46.9L26.2,46.9L26.2,46.9z M27.9,41.3c0.5-1.2,1.1-2.4,1.7-3.6c0.4,0.2,0.9,0.3,1.5,0.3
	c0.2,0,0.5,0,0.7-0.1c0.6,1.3,1.3,2.6,2.1,3.8C31.9,41.8,29.9,41.7,27.9,41.3L27.9,41.3L27.9,41.3z M56.6,26.7
	c-1.3-0.4-2.6-0.5-3.9-0.4c-0.1-0.4-0.2-0.7-0.4-1.1c-0.6-1.1-2.3-2-3.6-1.6c0-0.1,0-0.1-0.1-0.2c-1.4-2.5-3.9-4.3-6.4-5.7
	C48.2,17.9,53.6,21.5,56.6,26.7L56.6,26.7L56.6,26.7z M52.7,27.7c1.7-0.1,3.2,0.4,4.8,1c0.2,0.4,0.3,0.8,0.5,1.2
	c0.3,0.9,0.6,1.9,0.8,2.9c-1.4,2-3.3,3.6-5.3,4.9c-0.8-0.8-1.7-1.6-2.6-2.4c0.2-1.7,0.3-3.3,0.4-4.9c0,0,0-0.1,0-0.1
	C52.1,29.6,52.6,28.7,52.7,27.7L52.7,27.7L52.7,27.7z M45.8,26.4c-2.4-0.1-4.9,0.7-7.2,1.8c-2.2-0.8-4.6-1.3-6.9-1.6
	c0-0.2,0-0.4,0-0.6c0-1.9,0-3.7,0.6-5.5c0,0,0,0,0,0c1.8-1.1,3.9-2,6.1-2.5c0.4-0.1,0.8-0.1,1.1-0.2c2.9,1.5,6.3,3.3,8,6.2
	C46.7,24.6,46.1,25.5,45.8,26.4L45.8,26.4L45.8,26.4z M37.1,29c-1.3,0.8-2.5,1.6-3.6,2.5c-0.5-0.7-1.2-1.1-1.9-0.9
	c0.2-0.9,0.2-1.8,0.2-2.7C33.6,28.1,35.4,28.5,37.1,29L37.1,29L37.1,29z M34.2,32.7c1.5-1.2,3.1-2.3,4.9-3.1
	c1.8,0.7,3.6,1.5,5.3,2.5c1.8,1,3.5,2.2,5,3.5c-0.1,0.9-0.3,1.7-0.5,2.5c-0.1,0.5-0.2,0.9-0.4,1.4c-1.8,0.5-3.6,0.8-5.5,1.1
	c-2.5,0.4-4.9,0.8-7.4,1c-1-1.3-1.9-2.8-2.6-4.4c1-0.8,1.5-2.1,1.4-3.5C34.4,33.5,34.3,33.1,34.2,32.7L34.2,32.7L34.2,32.7z
	 M40.7,29c1.7-0.6,3.4-1,5.1-1.1c0,0.1,0.1,0.3,0.1,0.4c0.5,1.7,2.3,2.6,4,2.4c-0.1,1.2-0.1,2.3-0.2,3.5C46.8,32,43.8,30.3,40.7,29
	L40.7,29L40.7,29z M30.1,26.5c-1.3-0.1-2.6-0.1-3.9,0c1.2-1.7,2.6-3.3,4.2-4.6c-0.2,1.1-0.3,2.2-0.3,3.4
	C30.2,25.6,30.2,26.1,30.1,26.5L30.1,26.5L30.1,26.5z M33.9,53.1c2.3-0.4,4.6-1.4,6.5-2.7c0,0,0.1,0,0.1-0.1c1.3,1,3.6,1,4.8,0.1
	c0.3-0.2,0.5-0.4,0.7-0.7c0,0,0.1,0,0.1,0c1.7,0.6,3.7,1.1,5.6,1.1c-0.4,0.3-0.8,0.6-1.2,0.8C45.5,54.9,39.3,55.3,33.9,53.1
	L33.9,53.1L33.9,53.1z M53.5,49.4c-2.4-0.1-4.5-0.2-6.8-0.9c0.3-0.9,0.2-1.8-0.3-2.7c1.5-1.5,2.5-3.3,3.2-5.2
	c1.2-0.4,2.3-0.8,3.4-1.4c1.5,1.6,2.8,3.3,4.1,5C56.3,46.2,55.1,47.9,53.5,49.4L53.5,49.4L53.5,49.4z M57.8,42.8
	c-1-1.5-2.2-3-3.5-4.3c1.8-1.1,3.3-2.5,4.6-4.1C59.3,37.3,58.8,40.2,57.8,42.8L57.8,42.8L57.8,42.8z M44.7,48.8
	c-0.8,0.8-2.3,0.8-3.1,0.2c-0.9-0.6-0.8-2.2,0.1-2.8c0.2,0.1,0.4,0.1,0.7,0c0.5-0.3,0.8-0.7,1.5-0.6c0.4,0.1,0.7,0.3,1,0.6
	C45.5,46.9,45.5,48.1,44.7,48.8L44.7,48.8L44.7,48.8z M47.4,42c-0.5,1-1.2,1.8-1.8,2.7c-0.5-0.4-1-0.7-1.6-0.8
	c-0.8-0.2-1.5,0.1-2.1,0.5c0,0-0.1,0-0.1,0c-0.8,0.1-1.4,0.6-1.8,1.2c-0.9-0.8-1.9-1.4-2.8-2.3c-0.2-0.2-0.3-0.4-0.5-0.5
	c2.4-0.2,4.7-0.6,7-1c1.4-0.3,2.8-0.5,4.2-0.8C47.8,41.4,47.6,41.7,47.4,42L47.4,42L47.4,42z M50.1,39.1c0.2-0.8,0.4-1.5,0.5-2.3
	c0.5,0.5,1,1,1.5,1.5C51.5,38.6,50.8,38.8,50.1,39.1L50.1,39.1L50.1,39.1z M49.2,29.1c-2-0.1-2.6-2.4-1.3-3.6c0.2,0.1,0.5,0.1,0.7,0
	c0.4-0.2,0.8-0.5,1.3-0.3c0.6,0.1,0.9,0.7,1.1,1.2C51.4,27.7,50.7,29.1,49.2,29.1L49.2,29.1L49.2,29.1z M30.5,32.1
	c0.2,0.3,0.7,0.4,1,0.2c1.2-0.5,1.2,2,1.1,2.6c-0.3,0.9-1.2,1.7-2.2,1.3C28.8,35.5,29.1,32.7,30.5,32.1z"/>
</svg>
