<?xml version="1.0" encoding="utf-8"?>
<!-- Generator: Adobe Illustrator 27.3.1, SVG Export Plug-In . SVG Version: 6.00 Build 0)  -->
<svg version="1.1" id="Vrstva_1" xmlns="http://www.w3.org/2000/svg" xmlns:xlink="http://www.w3.org/1999/xlink" x="0px" y="0px"
	 viewBox="0 0 35.9 40.8" style="enable-background:new 0 0 35.9 40.8;" xml:space="preserve">
<style type="text/css">
	.st0{display:none;fill:none;stroke:#1AB69D;stroke-width:2;stroke-linejoin:round;stroke-miterlimit:10;}
	.st1{display:none;fill:none;stroke:#1AB69D;stroke-width:2;stroke-linecap:round;stroke-linejoin:round;stroke-miterlimit:10;}
	.st2{display:none;fill:none;stroke:#1AB69D;stroke-width:2;stroke-miterlimit:10;}
	.st3{display:none;fill:none;stroke:#1AB69D;stroke-linecap:round;stroke-linejoin:round;stroke-miterlimit:10;}
	.st4{fill:#00D0FF;}
	.st5{fill-rule:evenodd;clip-rule:evenodd;fill:#AEDFF4;}
	.st6{fill-rule:evenodd;clip-rule:evenodd;fill:#2B2722;}
</style>
<path class="st0" d="M9.3,26.1l5.1,5.2c0.2,0.2,0.3,0.4,0.3,0.6v3.6c0,0.4,0.2,0.7,0.6,0.8c1.4,0.5,4.8,0.9,7.3,3
	c0.6,0.5,1.4,0,1.4-0.7v-3.8c0-1.4,1.1-2.5,2.5-2.7c2.2-0.2,5.2-1.8,5-8.1c0-0.5,0.4-0.9,0.9-0.9h1.1c1,0,1.6-1.2,0.9-2l-3.1-3.7
	c-0.3-0.4-0.5-0.8-0.5-1.3v-5.5c0-4.1-3.4-9.3-9.8-9.3S10.3,4.1,10.3,7"/>
<path class="st1" d="M25.7,6.5v18c0,1-0.8,1.8-1.8,1.8h-2.2c-0.2,0-0.4,0.1-0.6,0.3l-1.7,2.7c-0.1,0.1-0.2,0.1-0.2,0l-3.2-2.9
	c-0.1-0.1-0.3-0.2-0.4-0.2H4.3c-1,0-1.8-0.8-1.8-1.8V8.4c0-1,0.8-1.8,1.8-1.8h16"/>
<path class="st2" d="M13.8,18.1c1,0,1.7-0.8,1.7-1.7c0-1-0.8-1.7-1.7-1.7s-1.7,0.8-1.7,1.7C12.1,17.3,12.8,18.1,13.8,18.1z"/>
<path class="st2" d="M9.3,13.5c1,0,1.7-0.8,1.7-1.7c0-1-0.8-1.7-1.7-1.7s-1.7,0.8-1.7,1.7C7.6,12.7,8.3,13.5,9.3,13.5z"/>
<path class="st2" d="M18.3,13.5c1,0,1.7-0.8,1.7-1.7c0-1-0.8-1.7-1.7-1.7c-1,0-1.7,0.8-1.7,1.7C16.6,12.7,17.4,13.5,18.3,13.5z"/>
<path class="st2" d="M9.3,22.7c1,0,1.7-0.8,1.7-1.7s-0.8-1.7-1.7-1.7S7.6,20,7.6,21S8.3,22.7,9.3,22.7z"/>
<path class="st2" d="M18.3,22.7c1,0,1.7-0.8,1.7-1.7s-0.8-1.7-1.7-1.7c-1,0-1.7,0.8-1.7,1.7S17.4,22.7,18.3,22.7z"/>
<path class="st2" d="M14.9,15.1l2.1-2.1"/>
<path class="st2" d="M12.5,15.2L10.3,13"/>
<path class="st2" d="M12.4,18.3l-2.1,2.1"/>
<path class="st2" d="M14.9,18.1l2.2,2.2"/>
<path class="st3" d="M23,7.1c0.2,0,0.4-0.2,0.4-0.4c0-0.2-0.2-0.4-0.4-0.4c-0.2,0-0.4,0.2-0.4,0.4C22.6,6.9,22.8,7.1,23,7.1z"/>
<path class="st4" d="M28.5,12.2c1.1-0.1,2.1-0.2,3-0.2c0.5,0,1.1,0.1,1.6,0.4c1.6,0.8,1.9,2.4,0.6,3.7c-0.4,0.4-0.8,0.7-1.2,1
	c-0.3,0.3-0.7,0.6-1,1c-0.8,1-0.6,2.1,0.4,2.9c0.3,0.2,0.6,0.4,0.9,0.6c0.4,0.2,0.7,0.4,1.1,0.6c1,0.7,1.4,1.5,1.1,2.3
	c-0.3,0.8-1.4,1.2-2.5,1c-0.7-0.2-1.4-0.5-2.1-0.8c-0.6-0.2-1.2-0.4-1.8-0.5c-0.7-0.1-1.4,0.3-1.7,1c-0.3,0.7,0,1.2,0.5,1.7
	c0.5,0.5,1,0.8,1.5,1.3c0.8,0.7,1.7,1.3,2.4,2c0.9,0.9,1.2,2,0.8,3.3c-0.2,0.9-0.8,1.4-1.7,1.5c-0.9,0.1-1.8-0.1-2.5-0.6
	c-0.8-0.5-1.5-1.1-2.3-1.5c-0.6-0.3-1.3-0.6-2-0.6c-0.9,0-1.3,0.7-1.1,1.6c0.1,0.3,0.2,0.6,0.3,0.9c0.3,1.1,0.1,2.1-0.8,2.9
	c-0.8,0.7-1.8,0.8-2.8,0.4c-1.1-0.5-1.6-1.3-1.6-2.4c0-0.4,0-0.8,0.1-1.2c0-0.7,0.1-1.3,0.1-2c-0.1-1.6-1.5-2.4-3-1.8
	c-0.2,0.1-0.4,0.2-0.6,0.3c-1,0.3-1.8,0-2.3-0.9c-0.2-0.3-0.3-0.6-0.5-0.9c-0.7-1-1.8-1.5-2.9-1.1c-0.9,0.3-1.7,0.9-2.4,1.5
	c-0.6,0.4-1,1.1-1.6,1.5c-0.7,0.5-1.5,1-2.3,1.1c-1.4,0.3-2.3-0.8-1.9-2.1c0.2-0.6,0.5-1.1,0.9-1.6c2.1-2.4,4.3-4.7,6.4-7
	c0.2-0.2,0.4-0.4,0.5-0.6c0.3-0.4,0.5-0.9,0.2-1.4c-0.4-0.5-0.9-0.7-1.5-0.6c-0.4,0.1-0.9,0.4-1.3,0.6c-0.4,0.3-0.8,0.6-1.3,0.9
	c-0.7,0.4-1.4,0.6-2.1,0c-0.7-0.5-1-1.3-0.8-2.2c0.4-2,2.3-3.8,4.4-4.1c0.7-0.1,1.3-0.1,2-0.3c1.2-0.3,1.5-1.1,1-2.2
	C8.4,10.9,8,10.5,7.8,10c-0.4-0.9,0-1.8,0.9-2C9.5,7.8,10.3,8,11,8c0.8,0,1.5,0.2,2.2,0c1.1-0.3,1.4-1.1,0.9-2.2
	c-0.5-1-0.4-1.4,0.2-1.9c0.6-0.5,1.5-0.5,2.2,0.1c0.5,0.5,0.9,1.1,1.2,1.6c0.4,0.7,0.7,1.4,1.2,2c1.2,1.5,2.9,1.3,3.8-0.4
	c0.4-0.6,0.6-1.3,0.9-2C24.3,4.2,25.1,3.7,26,4c0.9,0.2,1.6,1.2,1.5,2.4c-0.1,0.8-0.4,1.6-0.6,2.4c-0.2,0.6-0.5,1.2-0.7,1.8
	C26,11.3,26.2,11.8,27,12C27.6,12.1,28.2,12.1,28.5,12.2z"/>
<path class="st4" d="M22.5,3.8c0,1.7-0.8,2.6-1.8,3.5c-0.1,0.1-0.5,0-0.6-0.1c-0.7-1.2-1.5-2.4-2-3.7c-0.3-0.6-0.2-1.5,0-2.2
	c0.2-0.9,1-1.2,1.9-0.8C21.5,1.1,22.3,2.3,22.5,3.8z"/>
<path class="st4" d="M11.6,33.3c-0.1,1.1-0.5,2.3-1.3,3.2C10,36.8,9.6,37,9.4,36.9c-0.3-0.1-0.6-0.5-0.6-0.8
	c0.1-0.9,0.1-1.9,0.4-2.7c0.2-0.5,0.8-0.9,1.4-1.1C11.4,32,11.6,32.2,11.6,33.3z"/>
<path class="st4" d="M1.4,8.9c0.3-0.1,0.6-0.2,0.9-0.1C3.3,9,4,9.4,4.5,10.1c0.3,0.4,0.4,1,0.2,1.4c-0.1,0.3-0.9,0.5-1.2,0.4
	c-0.8-0.3-1.6-0.8-2.3-1.3c-0.3-0.2-0.4-0.9-0.3-1.2C0.9,9.2,1.2,9.1,1.4,8.9z"/>
<path class="st4" d="M29.1,40.4c-1.1-1.2-1.5-2.6-1.7-4.1c0-0.3,0.3-0.5,0.5-0.4c0.2,0.1,0.4,0.2,0.5,0.3c1.1,0.9,1.8,2.1,2,3.5
	c0.1,0.3-0.1,0.9-0.3,1"/>
<path class="st4" d="M11.6,5.2c0.1,0.4-0.3,0.7-0.6,0.5c-0.9-0.4-1.5-1.3-1.5-2.1c0-0.2,0.2-0.5,0.3-0.5c0.2,0,0.6,0,0.7,0.2
	C11.1,3.8,11.4,4.5,11.6,5.2z"/>
<path class="st4" d="M32,9.3c0,0.1,0,0.2-0.1,0.3c-0.2,0.2-0.4,0.4-0.6,0.4c-0.2,0-0.4-0.2-0.6-0.4c-0.1-0.1-0.1-0.3,0-0.4
	c0.2-0.2,0.3-0.4,0.5-0.4c0.2,0,0.4,0.2,0.7,0.3C31.9,9.1,31.9,9.2,32,9.3L32,9.3z"/>
<path class="st4" d="M5.3,6.6c0.1,0,0.2,0,0.2,0.1c0.2,0.2,0.4,0.5,0.4,0.7c0,0.2-0.2,0.4-0.4,0.5C5.4,8,5.2,8,5.1,7.9
	C4.9,7.7,4.6,7.6,4.6,7.4c0-0.2,0.2-0.5,0.4-0.7C5.1,6.6,5.2,6.6,5.3,6.6L5.3,6.6z"/>
<g>
	<path class="st5" d="M14.3,10.3c-1.1,1.2-2.2,2.4-3.3,3.5c-0.6,0.6-1.9,1.5-2,2.4c0,0.2,0.3,0.3,0.4,0.1c0.6-1.1,1.7-2,2.6-2.9
		c0.9-1,1.8-1.9,2.7-2.9C14.7,10.3,14.4,10.1,14.3,10.3z"/>
	<path class="st5" d="M17.4,9.5c-1.8,1.8-3.6,3.6-5.4,5.4c-0.9,0.9-1.7,1.7-2.6,2.6c-0.5,0.5-1.4,1-1.5,1.7c0,0.1,0,0.3,0.2,0.3
		c0,0,0.1,0,0.1,0c0.1,0,0.2,0,0.3-0.1l0-0.1c0,0,0,0,0-0.1c0.1,0,0.1-0.1,0.2-0.2c0.2-0.2,0.5-0.5,0.7-0.7c0.3-0.3,0.6-0.6,0.9-0.9
		c0.8-0.9,1.7-1.7,2.5-2.6c1.6-1.7,3.2-3.3,4.9-5C17.8,9.6,17.6,9.3,17.4,9.5z"/>
	<path class="st5" d="M19.9,9.5c-3.9,3.8-7.8,7.4-11.8,11.1c-0.3,0.3,0.2,0.7,0.5,0.5c4-3.6,7.9-7.4,11.7-11.2
		C20.5,9.6,20.1,9.3,19.9,9.5z"/>
	<path class="st5" d="M21.7,10.3c-4.4,4.2-8.9,8.3-13.4,12.3c-0.3,0.3,0.2,0.7,0.5,0.5c4.6-3.9,9-8.2,13.3-12.5
		C22.3,10.4,21.9,10.1,21.7,10.3z"/>
	<path class="st5" d="M23.7,11c-4.2,5.1-9.4,9.1-14.5,13.2c-0.3,0.2,0.1,0.7,0.4,0.5c5.2-3.9,10.4-8.3,14.5-13.4
		C24.2,11.1,23.9,10.8,23.7,11z"/>
	<path class="st5" d="M25.4,12.4c-2.4,2.4-4.9,4.8-7.4,7.1c-2.5,2.3-5.4,4.4-7.6,6.9c-0.2,0.2,0.1,0.6,0.3,0.4
		c2.7-1.8,5.1-4.4,7.5-6.6c2.6-2.4,5.1-4.8,7.5-7.4C26,12.5,25.6,12.2,25.4,12.4z"/>
	<path class="st5" d="M26.5,14.3c-4.6,4.8-9.7,8.9-14.7,13.3c-0.3,0.2,0.1,0.7,0.4,0.5c5.1-4.2,10.1-8.6,14.6-13.4
		C27.1,14.4,26.7,14.1,26.5,14.3z"/>
	<path class="st5" d="M27.6,15.7c-3.9,4.9-9.1,8.7-13.7,12.9c-0.3,0.3,0.2,0.7,0.5,0.4c4.7-4,9.8-8.1,13.6-13.1
		C28.1,15.8,27.7,15.5,27.6,15.7z"/>
	<path class="st5" d="M28.4,18.4c-2,2.3-4.1,4.4-6.4,6.4c-1.1,0.9-2.1,1.8-3.2,2.7c-0.6,0.5-2.3,1.4-2.4,2.2c0,0.1,0,0.3,0.2,0.4
		c0.1,0,0.1,0.1,0.2,0.1c0.2,0.1,0.4,0,0.5-0.2c0-0.1,0-0.1,0-0.2c0-0.1,0-0.2-0.1-0.3c0,0,0,0,0,0c0.9-0.5,2.8-2.2,3.1-2.4
		c1-0.8,2-1.7,2.9-2.6c2-1.8,3.9-3.8,5.6-5.9C28.9,18.4,28.6,18.1,28.4,18.4z"/>
	<path class="st5" d="M28.3,21c-2.9,3-6.1,5.7-9.3,8.4c-0.3,0.2,0.1,0.7,0.4,0.5c3.4-2.5,6.4-5.5,9.3-8.6
		C28.9,21.1,28.5,20.8,28.3,21z"/>
	<path class="st5" d="M28,23.3c-1.9,2-4.1,3.7-6.2,5.6c-0.2,0.1-0.1,0.4,0.1,0.5c0,0,0,0,0,0c0.2,0,0.3-0.1,0.3-0.3c0,0,0,0,0,0
		c0,0,0,0,0,0c0.1,0.3,0.2,0,0.4-0.1c0.2-0.2,0.5-0.4,0.7-0.6c0.6-0.5,1.1-1,1.7-1.5c1.1-1,2.2-2.1,3.2-3.2
		C28.6,23.4,28.2,23.1,28,23.3z"/>
	<path class="st6" d="M28.4,15.8c0-0.1,0-0.2-0.1-0.3c-0.9-2.1-2.4-3.9-4.4-5.2c-1.5-0.9-3.1-1.4-4.8-1.5c-0.1,0-0.1,0-0.2,0
		c-3.1-0.1-6.2,1-8.4,3.4c-0.1,0.1-0.1,0.1-0.1,0.2C7.7,15.5,6.8,20.2,8.5,24c1.8,4.1,6,6.8,10.6,6.4c2.2-0.2,4.3-1,6-2.5
		c1-0.8,1.9-1.8,2.7-2.8c0.2-0.2,0.3-0.5,0.5-0.7c0,0,0.1,0,0.1,0c0.3-0.1,0.3-0.4,0.2-0.6c0.3-0.7,0.4-1.5,0.5-2.3
		C29.3,19.5,29.1,17.6,28.4,15.8L28.4,15.8L28.4,15.8z M28.3,19.5C28.3,19.5,28.3,19.5,28.3,19.5c-1.6,0-3.2,0-4.8,0
		c0-1.7-0.3-3.3-0.9-4.9c1.7,0.3,3.3,0.8,4.9,1.4C28,17,28.3,18.2,28.3,19.5L28.3,19.5L28.3,19.5z M17.7,19.4c-1.4,0-2.7,0-4.1,0
		c0.1-1.6,0.3-3.3,0.7-4.8c0,0,0-0.1,0-0.1c1.2-0.2,2.3-0.3,3.5-0.3C17.8,15.9,17.7,17.6,17.7,19.4L17.7,19.4L17.7,19.4z M13.6,20
		c1.4,0,2.7,0,4.1,0c0,1.7-0.1,3.4,0,5.2c-1.1,0-2.2,0-3.3-0.2c-0.5-1.5-0.8-3.1-0.8-4.8C13.6,20.2,13.6,20.1,13.6,20L13.6,20
		L13.6,20z M18.4,20.1c1.5,0,2.9,0,4.4,0c0,1.6-0.3,3.2-0.9,4.8c-1.2,0.2-2.4,0.3-3.6,0.3C18.4,23.5,18.4,21.8,18.4,20.1L18.4,20.1
		L18.4,20.1z M22,10.4c2.2,0.9,4,2.6,5.1,4.7c-1.6-0.6-3.1-1-4.8-1.3c-0.6-1.5-1.4-2.8-2.4-4C20.7,9.9,21.4,10.1,22,10.4L22,10.4
		L22,10.4z M18.7,9.7c0.1,0,0.2,0,0.3,0c1.1,1.2,1.9,2.5,2.6,4c-1-0.1-2-0.2-3-0.2C18.6,12.2,18.6,10.9,18.7,9.7L18.7,9.7L18.7,9.7z
		 M21.8,14.4c0.6,1.6,0.9,3.3,1,5.1c-1.5,0-2.9,0-4.4,0c0-1.8,0-3.5,0.1-5.3C19.6,14.1,20.7,14.2,21.8,14.4L21.8,14.4L21.8,14.4z
		 M17.5,9.7c0.2,0,0.4,0,0.5,0c-0.1,1.3-0.1,2.5-0.1,3.8c-1.1,0-2.2,0.1-3.3,0.3C15,12.1,15.9,10.6,17.5,9.7
		C17.4,9.7,17.4,9.7,17.5,9.7L17.5,9.7L17.5,9.7z M11.7,12.1C11.7,12.1,11.7,12.1,11.7,12.1c1.4-1.1,2.9-1.9,4.6-2.2
		c-1.1,0.9-1.9,2.1-2.4,3.5c0,0.1-0.1,0.3-0.1,0.4c-1.4,0.2-2.8,0.6-4.1,1.1C10.2,13.9,10.8,12.9,11.7,12.1L11.7,12.1L11.7,12.1z
		 M13.6,14.5c-0.4,1.6-0.6,3.2-0.7,4.8c-1.5,0-2.9,0-4.4,0c0-1.2,0.3-2.5,0.8-3.6C10.7,15.2,12.1,14.8,13.6,14.5L13.6,14.5
		L13.6,14.5z M8.5,20c1.5,0,2.9,0,4.4,0c0,1.6,0.2,3.3,0.7,4.9c-1.4-0.2-2.8-0.7-4.2-1.3C8.8,22.4,8.5,21.2,8.5,20L8.5,20L8.5,20z
		 M10,24.9c-0.1-0.1-0.2-0.3-0.2-0.4c1.3,0.5,2.7,0.9,4,1.1c0.5,1.4,1.3,2.6,2.4,3.7C13.6,28.7,11.4,27.2,10,24.9L10,24.9L10,24.9z
		 M17.5,29.5c-1.3-1-2.3-2.3-2.9-3.8c1,0.1,2,0.2,3,0.2c0,1.2,0,2.4,0,3.6C17.6,29.5,17.6,29.5,17.5,29.5L17.5,29.5L17.5,29.5z
		 M18.9,29.4c0,0-0.1,0.1-0.1,0.1c-0.2,0-0.3,0-0.5,0c0-1.2,0-2.5,0-3.7c1.1,0,2.2-0.1,3.3-0.3C21,27,20.1,28.3,18.9,29.4L18.9,29.4
		L18.9,29.4z M25.9,26c-1.5,1.6-3.2,2.8-5.5,3.3c-0.2,0-0.3,0.1-0.5,0.1c1.1-1.1,1.9-2.5,2.5-3.9c1.5-0.2,3.1-0.5,4.6-0.8
		C26.7,25.1,26.3,25.5,25.9,26L25.9,26L25.9,26z M27.9,22.9c-0.1,0.3-0.2,0.6-0.4,0.9c-1.6,0.3-3.2,0.7-4.8,0.9
		c0.5-1.5,0.8-3,0.8-4.6c1.6,0,3.2,0,4.7,0.1C28.3,21.1,28.2,22,27.9,22.9z"/>
</g>
</svg>
