<?xml version="1.0" encoding="utf-8"?>
<!-- Generator: Adobe Illustrator 27.3.1, SVG Export Plug-In . SVG Version: 6.00 Build 0)  -->
<svg version="1.1" id="Vrstva_1" xmlns="http://www.w3.org/2000/svg" xmlns:xlink="http://www.w3.org/1999/xlink" x="0px" y="0px"
	 viewBox="0 0 1920 913" style="enable-background:new 0 0 1920 913;" xml:space="preserve">
<style type="text/css">
	.st0{display:none;fill-rule:evenodd;clip-rule:evenodd;}
	.st1{display:none;fill:url(#SVGID_1_);}
	.st2{clip-path:url(#SVGID_00000009576921764184194220000010592660068362309033_);}
	.st3{fill:url(#SVGID_00000183955373206449399660000014259884878781002140_);}
	.st4{fill:url(#SVGID_00000078753281475057240730000003044893836125514907_);}
	.st5{fill:url(#SVGID_00000009558561994972567750000014098048765029257603_);}
	.st6{fill:url(#SVGID_00000173853689992488242840000013920596752317142158_);}
	.st7{fill:url(#SVGID_00000178907574416874421800000017059816143120099233_);}
	.st8{fill:url(#SVGID_00000056420348473211038210000015188996589932322747_);}
	.st9{fill:url(#SVGID_00000007414283497303523150000014230199739433797550_);}
	.st10{fill:url(#SVGID_00000056429611948344839880000010552670871255887267_);}
	.st11{fill:url(#SVGID_00000018928766983777289850000003817788073582974341_);}
	.st12{fill:url(#SVGID_00000080905913737482033740000015418196420676261261_);}
	.st13{fill:url(#SVGID_00000125573527787209715850000017719217053696653216_);}
	.st14{fill:url(#SVGID_00000064323240900017242160000003849168574099168392_);}
	.st15{fill:url(#SVGID_00000007416918199386087500000006958403637840901256_);}
	.st16{fill:url(#SVGID_00000060004334933336942860000001896227842493195679_);}
	.st17{fill:url(#SVGID_00000052063127160233519870000012705335413817095615_);}
</style>
<path class="st0" d="M1920,913c0,0,0-722.5,0-816c-46.7-9.3-102.5,12.6-151.1,3.5c-48.1-9.1-90.4-50.7-140.5-58
	c-48.6-7.1-103.4,20.4-153.8,15c-49-5.2-95.1-43.5-145.5-47c-49.3-3.4-101.4,27.9-151.9,26.2C1127.8,34.9,1078.5,0,1028,0
	c-50.5,0-99.7,34.9-149.2,36.6C828.3,38.3,776.2,7,726.9,10.4c-50.4,3.5-96.5,41.8-145.5,47c-50.3,5.4-105.1-22.1-153.8-15
	c-50.1,7.3-92.4,49-140.5,58c-49.8,9.4-107.2-13.5-154.7-2.3C83.4,109.6,46.1,154.2,0,168c0,33.1,0,745,0,745H1920z"/>
<linearGradient id="SVGID_1_" gradientUnits="userSpaceOnUse" x1="662.1552" y1="875.9282" x2="662.1552" y2="876.9282" gradientTransform="matrix(1920 0 0 -913 -1270378 800635.4375)">
	<stop  offset="0" style="stop-color:#F5F1EB"/>
	<stop  offset="1" style="stop-color:#F5F1EB;stop-opacity:0.502"/>
</linearGradient>
<path class="st1" d="M1920,913c0,0,0-722.5,0-816c-46.7-9.3-102.5,12.6-151.1,3.5c-48.1-9.1-90.4-50.7-140.5-58
	c-48.6-7.1-103.4,20.4-153.8,15c-49-5.2-95.1-43.5-145.5-47c-49.3-3.4-101.4,27.9-151.9,26.2C1127.8,34.9,1078.5,0,1028,0
	c-50.5,0-99.7,34.9-149.2,36.6C828.3,38.3,776.2,7,726.9,10.4c-50.4,3.5-96.5,41.8-145.5,47c-50.3,5.4-105.1-22.1-153.8-15
	c-50.1,7.3-92.4,49-140.5,58c-49.8,9.4-107.2-13.5-154.7-2.3C83.4,109.6,46.1,154.2,0,168c0,33.1,0,745,0,745H1920z"/>
<g>
	<defs>
		<rect id="SVGID_00000023970715153312653640000000007001825097651638_" x="0" y="0.2" width="1920" height="912.8"/>
	</defs>
	<clipPath id="SVGID_00000118393588490840760220000016160362837190945703_">
		<use xlink:href="#SVGID_00000023970715153312653640000000007001825097651638_"  style="overflow:visible;"/>
	</clipPath>
	<g style="clip-path:url(#SVGID_00000118393588490840760220000016160362837190945703_);">
		<g>
			
				<linearGradient id="SVGID_00000029032771155112089950000002489062384034152370_" gradientUnits="userSpaceOnUse" x1="206.8947" y1="88.2853" x2="259.7036" y2="88.2853">
				<stop  offset="0" style="stop-color:#FFCF1B"/>
				<stop  offset="1" style="stop-color:#FF881B"/>
			</linearGradient>
			<path style="fill:url(#SVGID_00000029032771155112089950000002489062384034152370_);" d="M222.4,113.3c2.7,1.1,12.3,1.6,16.3-0.4
				c36-18,19.4-41-2.4-48.5c-12.6-4.3-17-1.8-20.9,5.7C207.2,86,198.6,103.8,222.4,113.3z"/>
			
				<linearGradient id="SVGID_00000115480293080132208750000005212155640722666151_" gradientUnits="userSpaceOnUse" x1="998.1067" y1="1512.4247" x2="1041.2449" y2="1512.4247">
				<stop  offset="0" style="stop-color:#FFCF1B"/>
				<stop  offset="1" style="stop-color:#FF881B"/>
			</linearGradient>
			<path style="fill:url(#SVGID_00000115480293080132208750000005212155640722666151_);" d="M1026.4,1488.7
				c-2.9-1.4-5.7-2.1-8.3-1.9c-3.9,0.4-7.7,2.8-11.3,6.1c-11.6,10.7-11.6,28.6,0.1,39.2c3.6,3.2,7.2,5.5,11,5.8
				c2.6,0.2,5.4-0.5,8.3-1.8C1046.2,1526.8,1046.3,1498.3,1026.4,1488.7z"/>
			
				<linearGradient id="SVGID_00000065035275033573556430000013261726101691124658_" gradientUnits="userSpaceOnUse" x1="-232.2333" y1="737.2712" x2="2362.5364" y2="737.2712">
				<stop  offset="0" style="stop-color:#FFCF1B"/>
				<stop  offset="1" style="stop-color:#FF881B"/>
			</linearGradient>
			<path style="fill:url(#SVGID_00000065035275033573556430000013261726101691124658_);" d="M2083.6,403.4
				c-31.1-10-66.6-11.3-99.9-10.5c-126.2,2.9,376.8-136.2,378.9-183.6c1.7-37.3-312.8-108.4-269.3-85.3
				c116.9,62,386.1,216.9-398.8,34.1c-102.9-11.1-301.3,42.2-320.3,54.4c-38.7,24.9-70.1,15.7-89.5-25.1
				c-9.5-20-14.9-41.9-24.8-61.8c-18.3-36.6-52.6-48-87.5-25.9c-19.6,12.4-34.6,32.5-48.9,51.2c-17.1,22.5-28.2,49.6-47.3,70.2
				c-39.9,43.1-90.1,38.1-115.5-10.4c-16-30.6-34.1-54.1-74-42.5c-4.8,1.4-9.2,3.1-13.2,5c-3.7,1-7.4,2.3-11.1,3.8
				c-33.4,13.5-63.9,34.6-93.7,54.9c-42.3,28.8-85.1,59.9-139,33.2c-52.5-26-50.4-76.3-47-124.3c-0.5-13.2-0.8-26.5-1.5-39.7
				c-2.9-55-23.9-85.5-62.5-91c-39.3-5.6-83.4,19.6-98.4,64.9c-11.8,35.8-17.1,74.6-18.6,112.4c-3.9,98.4-32.2,115.1-125.1,69.7
				c-11-5.4-21.6-11.4-32.3-17.1c-26.9-14.3-52.6-31.5-81.1-42.1c-45.9-17-92.2-14.2-129.2,20.1c-34.3,31.7-30.5,71-16.3,107.8
				c10,56.4-141.3,61.1-132.7,84.7C-88.4,483,51.5,511.8-28.6,520.9c-32,3.7-66,3.1-95.2,14c-21.3,8-48.6,30.2-50.9,48.6
				c-2.6,21,13.7,56.2,32.3,65c35.6,16.8,78.4,20,118.5,27.5c29.9,5.6-15,19.7,10.8,32.2c19.8,9.6-42.5,21.1-42.7,40.4
				c-0.2,18.4-28.7,31.6-48.7,42.7c-22.9,12.8,114,23.3,87.5,30.8c-49.9,14-102.3,23.6-148.3,45.4c-53.5,25.3-77.5,86.3-62.8,130.5
				c13.1,39.3,59.5,64.3,120.9,64c20-0.1,40-2.2,59.9-4.2c33.6-3.5,68.1-13.9,100.5-9.6c28.8,3.8,62.9,17.9,79.8,38.6
				c8.2,10-12.5,49.5-29.1,68.5c-34,39-47,79.3-26.3,126.3c18.1,41.3,54.8,59.3,99.6,59.4c53.8,0.1,89.4-27.4,109-74.3
				c12.6-30,21.6-61.8,37.5-90.1c36.7-65.1,100.6-72.3,155.3-19.7c48.8,47,71.3,48.9,127,10.9c55.2-37.7,104.4-41.6,145.6-9
				c-28.1,11.1-54.9,22.6-80.4,36.3c-25.6,13.7-46.1,42.8-59.4,69.2c-6,11.9-7.9,23.2-6.3,33.2c-20.2-25.1-66-19.9-78.4,13
				c-17.4,46.4-21,105.9-1.6,135.4c6.8,10.4,44.4,15.7,44.9,14.5c17.1-40.8,37.8-81.8,44.2-124.6c1-6.8,0.8-13.2-0.4-19.2
				c8,9.8,21,17.1,38.1,20.4c63.8,12.5,123.3,0.4,169-46.4c2.3-2.3,4.4-4.6,6.4-7c6.1,14.3,12.5,28.5,20,42
				c17.6,31.9,36.5,66.2,64.2,89.1c49.4,40.8,112.2,13.9,116.1-48.5c1.2-18.9-1.3-38.4-5.5-57.6c12.4-2.6,23.7-7.4,29.8-14
				c26.3-28.4,40.7-67.1,58.8-102.1c13.5-26.1,19.8-57.6,39.3-78.2c14.9-15.8,48.4-28.8,67.8-23.5c18.6,5,36.3,33.5,42.3,54.8
				c6.9,24.5-0.6,52.4,0,78.8c1.1,49.7-2.9,100.5,7,148.7c11.5,56,66.8,94.1,115.3,92.1c43.1-1.8,80.5-38,96.3-94.7
				c5.1-18.4,8.3-37.4,11.4-56.3c5.3-31.9,3.8-66.4,16.6-95.2c11.4-25.6,34.6-53.3,59.9-63.5c12.3-4.9,46.7,24.5,61.6,44.8
				c30.4,41.6,67.8,64.1,120.6,57.4c46.4-5.9,47.5-57.3,86.1-76.3c357.3-175.9,289-677.3,160.2-622.4
				c-34.6,14.7,76.4-16.3,106.8-35.9C2156.2,488.2,2145.5,423.3,2083.6,403.4z"/>
			
				<linearGradient id="SVGID_00000049913628011139603390000018304372733353136521_" gradientUnits="userSpaceOnUse" x1="1534.2115" y1="1480.8297" x2="1649.2177" y2="1480.8297">
				<stop  offset="0" style="stop-color:#FFCF1B"/>
				<stop  offset="1" style="stop-color:#FF881B"/>
			</linearGradient>
			<path style="fill:url(#SVGID_00000049913628011139603390000018304372733353136521_);" d="M1577,1391.2c-12.9-15.4-39-8.6-41.4,11
				c-7.8,62.7,17.8,139,59.8,167.8c8.8,6.1,27,11.6,32.6,7.3c10.6-7.9,22.1-23.7,21.1-35.3C1644.1,1483,1614.8,1436.2,1577,1391.2z"
				/>
			
				<linearGradient id="SVGID_00000014612836587249994910000011102052236708329114_" gradientUnits="userSpaceOnUse" x1="930.2695" y1="80.5255" x2="999.7809" y2="80.5255">
				<stop  offset="0" style="stop-color:#FFCF1B"/>
				<stop  offset="1" style="stop-color:#FF881B"/>
			</linearGradient>
			<path style="fill:url(#SVGID_00000014612836587249994910000011102052236708329114_);" d="M957.5,127.1c8.2,19.2,37.4,15.9,41-4.5
				c4.8-27.5-3.9-54.8-20.1-81.1c-4-6.4-8.9-16.2-17.9-19.8c-5.8-2.3-16.7,6-20.1,11c-5.7,8.6-10,17-10.1,23.7
				C929.8,88.9,947.6,103.7,957.5,127.1z"/>
			
				<linearGradient id="SVGID_00000054256558006587512940000009336781834988081083_" gradientUnits="userSpaceOnUse" x1="1383.5336" y1="81.56" x2="1442.6998" y2="81.56">
				<stop  offset="0" style="stop-color:#FFCF1B"/>
				<stop  offset="1" style="stop-color:#FF881B"/>
			</linearGradient>
			<path style="fill:url(#SVGID_00000054256558006587512940000009336781834988081083_);" d="M1427.4,101.7c6.5-3.9,12.7-7,14.6-12
				c1.9-5.1-0.2-11.7-3.7-19.7c-5.5-12.6-21.6-17.6-33.9-10.5c-8.8,5-13.1,9.9-15.4,13.8c-11.9,21-1.5,20.8,4.8,26.1
				C1406.5,110.2,1417.3,107.7,1427.4,101.7z"/>
			
				<linearGradient id="SVGID_00000041286927885869981930000015936988494962624176_" gradientUnits="userSpaceOnUse" x1="2225.7764" y1="427.645" x2="2278.3296" y2="427.645">
				<stop  offset="0" style="stop-color:#FFCF1B"/>
				<stop  offset="1" style="stop-color:#FF881B"/>
			</linearGradient>
			<path style="fill:url(#SVGID_00000041286927885869981930000015936988494962624176_);" d="M2277.9,427.9
				c-4.2-20.9-33-28.5-47.9-12.6c-2.2,2.3-3.6,4.7-4.1,7.1c-0.7,3.7,0.8,7.8,3.2,12c7.8,13.5,25.9,18.2,39.7,10.2
				c4.2-2.4,7.5-5.2,8.8-8.6C2278.5,433.6,2278.5,430.9,2277.9,427.9z"/>
		</g>
		<g>
			
				<linearGradient id="SVGID_00000011744324389042561680000005448254305978346132_" gradientUnits="userSpaceOnUse" x1="-232.2333" y1="794.0521" x2="2362.5364" y2="794.0521">
				<stop  offset="0" style="stop-color:#FFCF1B"/>
				<stop  offset="1" style="stop-color:#FF881B"/>
			</linearGradient>
			<path style="fill:url(#SVGID_00000011744324389042561680000005448254305978346132_);" d="M222.4,113.3c2.7,1.1,12.3,1.6,16.3-0.4
				c36-18,19.4-41-2.4-48.5c-12.6-4.3-17-1.8-20.9,5.7C207.2,86,198.6,103.8,222.4,113.3z"/>
			
				<linearGradient id="SVGID_00000097502239319549968180000007718244316627941794_" gradientUnits="userSpaceOnUse" x1="-232.2333" y1="794.0521" x2="2362.5364" y2="794.0521">
				<stop  offset="0" style="stop-color:#FFCF1B"/>
				<stop  offset="1" style="stop-color:#FF881B"/>
			</linearGradient>
			<path style="fill:url(#SVGID_00000097502239319549968180000007718244316627941794_);" d="M1026.4,1488.7
				c-2.9-1.4-5.7-2.1-8.3-1.9c-3.9,0.4-7.7,2.8-11.3,6.1c-11.6,10.7-11.6,28.6,0.1,39.2c3.6,3.2,7.2,5.5,11,5.8
				c2.6,0.2,5.4-0.5,8.3-1.8C1046.2,1526.8,1046.3,1498.3,1026.4,1488.7z"/>
			
				<linearGradient id="SVGID_00000165233592080256356630000017862136156718375344_" gradientUnits="userSpaceOnUse" x1="-232.2333" y1="794.0521" x2="2362.5364" y2="794.0521">
				<stop  offset="0" style="stop-color:#FFCF1B"/>
				<stop  offset="1" style="stop-color:#FF881B"/>
			</linearGradient>
			<path style="fill:url(#SVGID_00000165233592080256356630000017862136156718375344_);" d="M2083.6,403.4
				c-31.1-10-66.6-11.3-99.9-10.5c-126.2,2.9,376.8-136.2,378.9-183.6c1.7-37.3-312.8-108.4-269.3-85.3
				c116.9,62,386.1,216.9-398.8,34.1c-102.9-11.1-301.3,42.2-320.3,54.4c-38.7,24.9-70.1,15.7-89.5-25.1
				c-9.5-20-14.9-41.9-24.8-61.8c-18.3-36.6-52.6-48-87.5-25.9c-19.6,12.4-34.6,32.5-48.9,51.2c-17.1,22.5-28.2,49.6-47.3,70.2
				c-39.9,43.1-90.1,38.1-115.5-10.4c-16-30.6-34.1-54.1-74-42.5c-4.8,1.4-9.2,3.1-13.2,5c-3.7,1-7.4,2.3-11.1,3.8
				c-33.4,13.5-63.9,34.6-93.7,54.9c-42.3,28.8-85.1,59.9-139,33.2c-52.5-26-50.4-76.3-47-124.3c-0.5-13.2-0.8-26.5-1.5-39.7
				c-2.9-55-23.9-85.5-62.5-91c-39.3-5.6-83.4,19.6-98.4,64.9c-11.8,35.8-17.1,74.6-18.6,112.4c-3.9,98.4-32.2,115.1-125.1,69.7
				c-11-5.4-21.6-11.4-32.3-17.1c-26.9-14.3-52.6-31.5-81.1-42.1c-45.9-17-92.2-14.2-129.2,20.1c-34.3,31.7-30.5,71-16.3,107.8
				c10,56.4-141.3,61.1-132.7,84.7C-88.4,483,51.5,511.8-28.6,520.9c-32,3.7-66,3.1-95.2,14c-21.3,8-48.6,30.2-50.9,48.6
				c-2.6,21,13.7,56.2,32.3,65c35.6,16.8,78.4,20,118.5,27.5c29.9,5.6-15,19.7,10.8,32.2c19.8,9.6-42.5,21.1-42.7,40.4
				c-0.2,18.4-28.7,31.6-48.7,42.7c-22.9,12.8,114,23.3,87.5,30.8c-49.9,14-102.3,23.6-148.3,45.4c-53.5,25.3-77.5,86.3-62.8,130.5
				c13.1,39.3,59.5,64.3,120.9,64c20-0.1,40-2.2,59.9-4.2c33.6-3.5,68.1-13.9,100.5-9.6c28.8,3.8,62.9,17.9,79.8,38.6
				c8.2,10-12.5,49.5-29.1,68.5c-34,39-47,79.3-26.3,126.3c18.1,41.3,54.8,59.3,99.6,59.4c53.8,0.1,89.4-27.4,109-74.3
				c12.6-30,21.6-61.8,37.5-90.1c36.7-65.1,100.6-72.3,155.3-19.7c48.8,47,71.3,48.9,127,10.9c55.2-37.7,104.4-41.6,145.6-9
				c-28.1,11.1-54.9,22.6-80.4,36.3c-25.6,13.7-46.1,42.8-59.4,69.2c-6,11.9-7.9,23.2-6.3,33.2c-20.2-25.1-66-19.9-78.4,13
				c-17.4,46.4-21,105.9-1.6,135.4c6.8,10.4,44.4,15.7,44.9,14.5c17.1-40.8,37.8-81.8,44.2-124.6c1-6.8,0.8-13.2-0.4-19.2
				c8,9.8,21,17.1,38.1,20.4c63.8,12.5,123.3,0.4,169-46.4c2.3-2.3,4.4-4.6,6.4-7c6.1,14.3,12.5,28.5,20,42
				c17.6,31.9,36.5,66.2,64.2,89.1c49.4,40.8,112.2,13.9,116.1-48.5c1.2-18.9-1.3-38.4-5.5-57.6c12.4-2.6,23.7-7.4,29.8-14
				c26.3-28.4,40.7-67.1,58.8-102.1c13.5-26.1,19.8-57.6,39.3-78.2c14.9-15.8,48.4-28.8,67.8-23.5c18.6,5,36.3,33.5,42.3,54.8
				c6.9,24.5-0.6,52.4,0,78.8c1.1,49.7-2.9,100.5,7,148.7c11.5,56,66.8,94.1,115.3,92.1c43.1-1.8,80.5-38,96.3-94.7
				c5.1-18.4,8.3-37.4,11.4-56.3c5.3-31.9,3.8-66.4,16.6-95.2c11.4-25.6,34.6-53.3,59.9-63.5c12.3-4.9,46.7,24.5,61.6,44.8
				c30.4,41.6,67.8,64.1,120.6,57.4c46.4-5.9,47.5-57.3,86.1-76.3c357.3-175.9,289-677.3,160.2-622.4
				c-34.6,14.7,76.4-16.3,106.8-35.9C2156.2,488.2,2145.5,423.3,2083.6,403.4z"/>
			
				<linearGradient id="SVGID_00000121970912411345615490000017158435478134394256_" gradientUnits="userSpaceOnUse" x1="-232.2333" y1="794.0521" x2="2362.5364" y2="794.0521">
				<stop  offset="0" style="stop-color:#FFCF1B"/>
				<stop  offset="1" style="stop-color:#FF881B"/>
			</linearGradient>
			<path style="fill:url(#SVGID_00000121970912411345615490000017158435478134394256_);" d="M1577,1391.2c-12.9-15.4-39-8.6-41.4,11
				c-7.8,62.7,17.8,139,59.8,167.8c8.8,6.1,27,11.6,32.6,7.3c10.6-7.9,22.1-23.7,21.1-35.3C1644.1,1483,1614.8,1436.2,1577,1391.2z"
				/>
			
				<linearGradient id="SVGID_00000003827115284554935280000006818454585433504429_" gradientUnits="userSpaceOnUse" x1="-232.2333" y1="794.0521" x2="2362.5364" y2="794.0521">
				<stop  offset="0" style="stop-color:#FFCF1B"/>
				<stop  offset="1" style="stop-color:#FF881B"/>
			</linearGradient>
			<path style="fill:url(#SVGID_00000003827115284554935280000006818454585433504429_);" d="M957.5,127.1c8.2,19.2,37.4,15.9,41-4.5
				c4.8-27.5-3.9-54.8-20.1-81.1c-4-6.4-8.9-16.2-17.9-19.8c-5.8-2.3-16.7,6-20.1,11c-5.7,8.6-10,17-10.1,23.7
				C929.8,88.9,947.6,103.7,957.5,127.1z"/>
			
				<linearGradient id="SVGID_00000034780337810509202430000009950601878533463471_" gradientUnits="userSpaceOnUse" x1="-232.2333" y1="794.0521" x2="2362.5364" y2="794.0521">
				<stop  offset="0" style="stop-color:#FFCF1B"/>
				<stop  offset="1" style="stop-color:#FF881B"/>
			</linearGradient>
			<path style="fill:url(#SVGID_00000034780337810509202430000009950601878533463471_);" d="M1427.4,101.7c6.5-3.9,12.7-7,14.6-12
				c1.9-5.1-0.2-11.7-3.7-19.7c-5.5-12.6-21.6-17.6-33.9-10.5c-8.8,5-13.1,9.9-15.4,13.8c-11.9,21-1.5,20.8,4.8,26.1
				C1406.5,110.2,1417.3,107.7,1427.4,101.7z"/>
			
				<linearGradient id="SVGID_00000052785810661997992070000007472612205468545179_" gradientUnits="userSpaceOnUse" x1="-232.2333" y1="794.0521" x2="2362.5364" y2="794.0521">
				<stop  offset="0" style="stop-color:#FFCF1B"/>
				<stop  offset="1" style="stop-color:#FF881B"/>
			</linearGradient>
			<path style="fill:url(#SVGID_00000052785810661997992070000007472612205468545179_);" d="M2277.9,427.9
				c-4.2-20.9-33-28.5-47.9-12.6c-2.2,2.3-3.6,4.7-4.1,7.1c-0.7,3.7,0.8,7.8,3.2,12c7.8,13.5,25.9,18.2,39.7,10.2
				c4.2-2.4,7.5-5.2,8.8-8.6C2278.5,433.6,2278.5,430.9,2277.9,427.9z"/>
		</g>
	</g>
</g>
<linearGradient id="SVGID_00000169541882040577448410000012299221678452712860_" gradientUnits="userSpaceOnUse" x1="-824.1783" y1="-44.0404" x2="-709.1722" y2="-44.0404">
	<stop  offset="0" style="stop-color:#FFCF1B"/>
	<stop  offset="1" style="stop-color:#FF881B"/>
</linearGradient>
<path style="fill:url(#SVGID_00000169541882040577448410000012299221678452712860_);" d="M-781.4-133.6c-12.9-15.4-39-8.6-41.4,11
	c-7.8,62.7,17.8,139,59.8,167.8c8.8,6.1,27,11.6,32.6,7.3c10.6-7.9,22.1-23.7,21.1-35.3C-714.3-41.9-743.6-88.7-781.4-133.6z"/>
</svg>
