<?xml version="1.0" encoding="utf-8"?>
<!-- Generator: Adobe Illustrator 27.3.1, SVG Export Plug-In . SVG Version: 6.00 Build 0)  -->
<svg version="1.1" id="Vrstva_1" xmlns="http://www.w3.org/2000/svg" xmlns:xlink="http://www.w3.org/1999/xlink" x="0px" y="0px"
	 viewBox="0 0 1920 2072.6" style="enable-background:new 0 0 1920 2072.6;" xml:space="preserve">
<style type="text/css">
	.st0{fill:#FCC200;}
</style>
<path class="st0" d="M1920,652.6c-11.2-13.1-23.2-25.3-36.5-36.4c-58.6-48.7-168.2-44.3-209.2-106.5
	c-49.7-75.4,45.9-194.5-7.8-267.6c-43.7-59.4-139.4-76.8-216.5-85.7c-80.9-9.4-166.2,57.6-244.2,35.4
	c-81.9-23.3-103.6-162.2-189.3-164.3c-88.1-2.2-116.2,155.1-204.2,159.1C696.2,191.7,635.8-21.1,522.1,1.7
	c-90,18-78.7,160.9-143.9,221c-54.1,49.8-155.5,51.5-198.7,109.7c-46.2,62.3-5,158.2-41.9,225.6C107.9,612.4,49,649.3,0,691.5v547.1
	c6.7,23.8,12.1,47.8,16.3,71.6c13.2,74.2-45.6,170.5,7,227.8c61.7,67.2,216.1-11.1,283.6,51.1c64,58.9,6,176.9,53.1,248.1
	c41.5,62.8,121.3,100,189.3,138.3c70.3,39.6,146,108.5,227.1,95.4c107.5-17.5,133.5-180.3,236.5-213.7
	c65.8-21.3,140.6,23,210.2,19.6c71.7-3.5,155.3-1.4,212.9-41c61.5-42.3,65-132,110.8-188.9c38.5-47.9,81.5-99.3,137.9-128.4
	c65.1-33.5,161.6-14.3,235.2-27.6L1920,652.6L1920,652.6z"/>
</svg>
