<?xml version="1.0" encoding="utf-8"?>
<!-- Generator: Adobe Illustrator 27.2.0, SVG Export Plug-In . SVG Version: 6.00 Build 0)  -->
<svg version="1.1" id="Vrstva_1" xmlns="http://www.w3.org/2000/svg" xmlns:xlink="http://www.w3.org/1999/xlink" x="0px" y="0px"
	 viewBox="0 0 1920 538.4" style="enable-background:new 0 0 1920 538.4;" xml:space="preserve">
<style type="text/css">
	.st0{fill:#FCC200;}
</style>
<path class="st0" d="M1920,65.1V0.9L0,0v65.1c48.7,28.3,71.9,52.8,91,90.5c19.1,37.7,36,54.7,61.5,54.7c25.7,0,46.6-18.8,73-17.8
	c27,1,51.2,20.3,64.6,42.8c23.6,39.8,30.3,95.9,18.4,140.2c-6.7,25-13.8,51.5-11.1,77.6c2.2,21.2,13.7,47.4,35.8,55
	c18.8,6.5,38.8-2.4,46.5-20.4c15.5-36.2-4.1-78.1-2.8-115.3c0.6-15.7,11-56.2,35.2-56.2c34.3,0,30,27.2,56.9,27.2
	s42.4-49.5,76.3-49.5c24,0,49.5,36.7,49.5,69.2c0,32.5-14.1,91.8-14.1,117.3c0,25.4,5.7,57.9,33.9,57.9c28.3,0,42.4-29.7,42.4-66.4
	c0-36.7-17-73.5-17-107.4s35.3-90.4,72.1-90.4c29.7,0,42.4,15.5,42.4,43.8c0,28.3-11.3,36.7-11.3,57.9S758.6,407,777,407
	c18.4,0,26.8-22.6,26.8-36.7c0-14.1-14.1-29.7-14.1-46.6c0-17,4.2-38.2,31.1-38.2c36.7,0,48,28.3,48,73.5c0,45.2-9.9,60.8-9.9,80.5
	c0,19.8,9.9,49.5,31.1,49.5s43.8-8.5,43.8-38.2c0-29.7-15.5-73.5-15.5-97.5c0-24-8.5-84.8,46.6-84.8c30,0,31.1,17,58.6,17
	c27.6,0,56.2-51.9,76.3-51.9c21.2,0,22.3,24.5,23.1,40.5c1.2,25.1-12.1,54.1-6.4,78.6c4.4,19,25.9,38.8,45.8,38.8
	c33.9,0,51.9-23.3,51.9-68.7c0-50.3-35.2-97.9-19.5-148.7c3.1-10.2,9.2-19.9,18.3-25.6c38.1-23.8,53.8,41.7,88.1,41.7
	c27.6,0,26.5-29.7,66.8-29.7c19.4,0,36.4,77,36.4,123.6c0,46.6-11.3,110.2-11.3,139.9c0,29.7,0,79.1,46.6,79.1
	c46.6,0,39.6-72.1,39.6-98.9c0-26.8-26.8-111.6-26.8-175.2s12.7-91.8,48-91.8c39.6,0,57.9,25.4,57.9,65c0,39.6-11.3,41-11.3,73.5
	s18.4,33.9,39.6,33.9c21.2,0,32.5-24,32.5-39.6c0-15.5-12.7-50.9-12.7-65c0-14.1,4.2-35.3,25.4-35.3c38.2,0,28.3,17,62.2,17
	s48-50.9,84.8-50.9c19.8,0,29.7,26.8,29.7,39.6c0,12.7-11.3,45.2-11.3,66.4s14.1,60.1,36.7,60.1c39.6,0,39.6-47.3,39.6-74.2
	c0-26.8-14.1-48-14.1-79.1C1859.4,117.3,1866.3,65.1,1920,65.1z"/>
</svg>
